<?xml version="1.0" encoding="utf-8"?>
<!-- Generator: Adobe Illustrator 24.1.2, SVG Export Plug-In . SVG Version: 6.00 Build 0)  -->
<!-- Arrow by Subur Imam Hidayat from the Noun Project -->
<svg version="1.1" id="Layer_1" xmlns="http://www.w3.org/2000/svg" xmlns:xlink="http://www.w3.org/1999/xlink" x="0px" y="0px"
	 viewBox="0 0 847 334.7" style="enable-background:new 0 0 847 334.7;" xml:space="preserve">
<style type="text/css">
	.st0{fill-rule:evenodd;clip-rule:evenodd;fill:#666766;}
</style>
<g>
	<path class="st0" d="M-5886,1985.1l-208,266c-32,45-71,86-106,131c-80,101-193,204-138,292c69,112,316,213,440,263
		c56,23,135,60,174,6c18-25,20-71,4-99c-29-51-314-110-391-194c200-49,338-69,520-150c491-219,784-635,735-1247
		c-15-195-70-373-157-513c-161-257-448-504-735-603c-148-51-395-90-565-96c-94-4-251-25-266,73c-7,47,26,86,66,94
		c50,9,355-32,723,89c255,85,582,377,692,637c142,334,103,757-104,1065c-160,237-587,442-853,469c36-48,292-360,297-405
		C-5751,1999.1-5821,1943.1-5886,1985.1z"/>
	<path class="st0" d="M-6355,3285.1c-47,32-185,62-253,71c-311,41-488-44-704-233c-273-239-335-598-232-951c61-211,159-369,288-516
		c26-29,51-55,81-80c32-28,51-49,87-74c32-23,51-42,88-65c379-237,660-161,660-303c0-126-156-65-197-55c-176,44-330,90-475,169
		c-129,72-346,256-432,373c-21,29-43,64-66,94c-40,55-88,140-117,205c-230,515-173,1017,266,1380c111,92,247,178,429,215
		c273,54,406-25,557-40c-21,13-27,23-48,39c-52,40-118,86-105,146c10,43,50,81,108,60c25-8,76-53,97-73c47-44,126-92,188-159
		c46-50,155-125,54-216l-401-302c-50-28-106,3-118,46C-6630,3120.1-6428,3205.1-6355,3285.1z"/>
	<path class="st0" d="M-7697-2314.9c-25,38-59,76-20,128c37,50,100,40,135-6c175-227,56-100,266-309c20-21,35-26,57-45
		c29-26,24-23,52-41c42-27,75-50,119-75c425-235,1087-379,1579-224l-181,182c-29,27-79,53-63,120c10,42,58,73,108,53
		c45-17,150-136,190-175c37-36,166-140,175-190c19-115-156-248-238-312c-36-29-63-46-104-73c-28-18-86-59-123-59c-49,1-86,44-78,97
		c9,66,91,73,194,160c-252,0-329-69-714-2C-6906-2987.9-7374-2788.9-7697-2314.9z"/>
	<path class="st0" d="M-7058-4317.9c88-59,420-137,552-149c234-21,428-10,642,47c483,128,746,422,805,432c54,9,98-30,99-77
		c3-66-125-142-171-175c-492-360-1064-499-1672-340c-92,24-196,68-276,85c50-121,323-195,264-312c-27-53-89-51-136-22
		c-102,65-374,316-395,411c-34,156,299,306,445,358c46,16,96,45,141,6c53-45,30-114-20-137C-6839-4219.9-7009-4269.9-7058-4317.9z"
		/>
	<path class="st0" d="M-8718-3536.9c43-64,286-252,297-300c9-40-6-75-27-91c-69-51-115,15-148,44l-246,229c-127,106-221,151-151,272
		c61,106,255,272,360,351l132,99c67,30,141-37,110-111c-16-37-339-255-371-325c352-16,708-27,1060-41l813-13c91,0,187,18,201-68
		c17-108-88-98-176-98c-90,0-180-2-271-2c-379,2-687,27-1058,35C-8366-3551.9-8544-3535.9-8718-3536.9z"/>
	<path class="st0" d="M706,145.1H384c-19,0-296-8-321-1c-15,3-26,20-18,38c9,22,73,15,112,15c104,0,208,4,314,4l241-2
		c-20,38-110,100-69,129c25,19,39-8,48-18c36-41,65-77,98-120c40-53-4-48-78-114c-14-13-69-70-76-73c-20-10-40,6-38,27
		C599,56.1,701,135.1,706,145.1z"/>
</g>
</svg>
