<svg xmlns="http://www.w3.org/2000/svg" width="501.602" height="465" viewBox="0 0 501.602 465"><g transform="translate(-19.855 -23.261)"><g transform="translate(67.636 23.261)"><g transform="translate(371.744 105.883)"><g transform="translate(12.776 12.569)"><path d="M425.146,132.192a5.211,5.211,0,0,1,1.632.511A6.873,6.873,0,0,1,430.032,136a6.967,6.967,0,0,1,.664,3.181,7.057,7.057,0,0,1-1.094,3.566,7.074,7.074,0,0,1-3.123,2.684,7.045,7.045,0,0,1-8.19-1.836,7.084,7.084,0,0,1-1.678-3.762,7.074,7.074,0,0,1,.534-3.691,6.952,6.952,0,0,1,1.959-2.593,6.866,6.866,0,0,1,4.348-1.588,5.205,5.205,0,0,1,1.693.235c-.008.048-.6-.12-1.69-.082a6.885,6.885,0,0,0-4.172,1.649,6.746,6.746,0,0,0-2.311,6.023,6.736,6.736,0,0,0,1.61,3.553,6.689,6.689,0,0,0,7.74,1.736,6.756,6.756,0,0,0,2.972-2.525,6.745,6.745,0,0,0,.483-6.433,6.881,6.881,0,0,0-3.068-3.273C425.744,132.342,425.132,132.239,425.146,132.192Z" transform="translate(-416.552 -131.957)" fill="#e0e0e0"/></g><path d="M431.736,125.837a1.382,1.382,0,0,1-.015-.242c0-.181-.01-.423-.017-.737-.009-.675-.023-1.648-.04-2.911l.05.062-6.289-1.372.113-.056-1.654,3.52-.029.063-.071,0a15.73,15.73,0,0,0-4.1.727l-.075.024-.057-.056-2.765-2.737.175.02-5.429,3.457.063-.184c.406,1.134.854,2.383,1.312,3.663l.034.094-.068.073a15.637,15.637,0,0,0-2.385,3.4l-.048.093h-.1l-3.888.014.171-.138c-.439,1.974-.914,4.1-1.4,6.282l-.1-.207,3.514,1.665.1.049.005.114a15.692,15.692,0,0,0,.714,4.083l.035.11-.082.083-2.744,2.758.026-.241,3.448,5.437-.233-.081,3.666-1.306.113-.04.087.082a15.618,15.618,0,0,0,3.385,2.384h0c.048.078-.106-.174.108.175v1.951c0,.648,0,1.3,0,1.939l-.155-.193,6.281,1.41-.22.108,1.669-3.512.05-.107.118,0a15.565,15.565,0,0,0,4.084-.708l.111-.035.082.082,2.755,2.747-.234-.025,5.44-3.439-.074.215-1.3-3.667-.036-.1.073-.078a15.574,15.574,0,0,0,2.4-3.389l.049-.093h.1l3.888,0-.16.13c.5-2.209.972-4.294,1.422-6.278l.083.17-3.509-1.677-.078-.037,0-.086a15.693,15.693,0,0,0-.7-4.1l-.024-.075.056-.056,2.755-2.747-.016.145L438.756,127l.1.036-3.674,1.28-.037.013-.027-.026a16.289,16.289,0,0,0-2.5-1.923l-.669-.4a1.7,1.7,0,0,1-.22-.136,2.069,2.069,0,0,1,.237.107c.154.078.386.2.687.376a15.283,15.283,0,0,1,2.55,1.886l-.064-.013,3.656-1.328.066-.024.039.06,3.469,5.423.05.078-.066.068-2.735,2.766.032-.131a15.944,15.944,0,0,1,.738,4.167l-.081-.123,3.517,1.661.11.051-.027.119c-.441,1.987-.9,4.072-1.4,6.284l-.028.128h-.133l-3.888.015.151-.093a15.923,15.923,0,0,1-2.439,3.472l.037-.18q.644,1.8,1.31,3.664l.049.137-.123.077-5.434,3.45-.128.081-.107-.106-2.759-2.743.193.047a15.949,15.949,0,0,1-4.185.73l.168-.11q-.825,1.739-1.666,3.513l-.068.142-.153-.034-6.281-1.407-.155-.035v-.158l0-1.939,0-.975v-.975c.214.351.059.1.106.175h0a15.967,15.967,0,0,1-3.47-2.445l.2.041-3.666,1.3-.148.053-.085-.133c-1.183-1.871-2.352-3.717-3.443-5.439l-.083-.131.11-.11,2.747-2.755-.047.193a16.057,16.057,0,0,1-.726-4.185l.108.162-3.511-1.672-.133-.063.033-.144,1.416-6.279.032-.137h.141l3.888,0-.15.093a15.911,15.911,0,0,1,2.449-3.463l-.035.166c-.453-1.282-.9-2.533-1.3-3.668l-.043-.118.106-.066,5.444-3.432.1-.061.08.081,2.749,2.753-.131-.032a15.915,15.915,0,0,1,4.168-.713l-.1.066,1.683-3.506.035-.073.077.019,6.273,1.445.05.011v.05c-.011,1.252-.02,2.215-.026,2.885-.005.318-.011.563-.014.746A2.065,2.065,0,0,1,431.736,125.837Z" transform="translate(-404.828 -120.423)" fill="#e0e0e0"/></g><g transform="translate(323.013 359.317)"><path d="M473.827,418.873s-.013-.409-.02-1.187-.011-1.935-.02-3.439c-.011-3.021-.026-7.453-.045-13.142-.023-11.373-.056-27.764-.1-47.888l.18.179-113.475.053h-.009l.232-.232c-.005,23.237-.011,45.439-.016,65.657l-.216-.216,81.62.1,23.441.059,6.25.026,1.616.013c.364,0,.557.013.557.013s-.175.009-.531.013l-1.592.013-6.206.026-23.39.059-81.764.1h-.216v-.217c0-20.217-.011-42.42-.016-65.657v-.232h.241l113.475.053h.179v.179c-.04,20.17-.073,36.6-.095,48-.02,5.671-.035,10.09-.046,13.1-.009,1.489-.015,2.627-.02,3.405S473.827,418.873,473.827,418.873Z" transform="translate(-360.111 -352.984)" fill="#e0e0e0"/><g transform="translate(0.377 7.95)"><path d="M473.838,360.511c0,.129-25.384.232-56.688.232s-56.693-.1-56.693-.232,25.378-.232,56.693-.232S473.838,360.383,473.838,360.511Z" transform="translate(-360.457 -360.279)" fill="#e0e0e0"/></g><g transform="translate(10.062 19.008)"><rect width="35.054" height="35.054" fill="#f5f5f5"/></g><g transform="translate(54.746 24.558)"><path d="M461.088,375.751a2.159,2.159,0,0,1-.515.047l-1.479.044-5.437.074-17.938.068-17.941-.068-5.437-.074-1.478-.044a2.16,2.16,0,0,1-.516-.047,2.163,2.163,0,0,1,.516-.047l1.478-.044,5.437-.073,17.941-.069,17.938.069,5.437.073,1.479.044A2.162,2.162,0,0,1,461.088,375.751Z" transform="translate(-410.348 -375.519)" fill="#e0e0e0"/><g transform="translate(0 7.83)"><path d="M462.217,382.936a2.259,2.259,0,0,1-.527.047l-1.51.044-5.559.074-18.336.068-18.341-.068-5.558-.074-1.511-.044a2.243,2.243,0,0,1-.526-.047,2.327,2.327,0,0,1,.526-.047l1.511-.042,5.558-.074,18.341-.069,18.336.069,5.559.074,1.51.042A2.344,2.344,0,0,1,462.217,382.936Z" transform="translate(-410.348 -382.704)" fill="#e0e0e0"/></g><g transform="translate(0 15.661)"><path d="M462.217,390.122a2.341,2.341,0,0,1-.527.047l-1.51.044-5.559.073-18.336.069-18.341-.069-5.558-.073-1.511-.044a2.324,2.324,0,0,1-.526-.047,2.248,2.248,0,0,1,.526-.047l1.511-.044,5.558-.074,18.341-.068,18.336.068,5.559.074,1.51.044A2.264,2.264,0,0,1,462.217,390.122Z" transform="translate(-410.348 -389.89)" fill="#e0e0e0"/></g><g transform="translate(0 23.491)"><path d="M462.217,397.307a2.341,2.341,0,0,1-.527.047l-1.51.044-5.559.073-18.336.069-18.341-.069-5.558-.073-1.511-.044a2.324,2.324,0,0,1-.526-.047,2.247,2.247,0,0,1,.526-.047l1.511-.044,5.558-.074,18.341-.068,18.336.068,5.559.074,1.51.044A2.263,2.263,0,0,1,462.217,397.307Z" transform="translate(-410.348 -397.075)" fill="#e0e0e0"/></g></g></g><g transform="translate(41.882)"><circle cx="47.163" cy="47.163" r="47.163" transform="translate(0 66.698) rotate(-45)" fill="#f5f5f5"/><g transform="translate(66.13 40.353)"><path d="M184.8,88.086a9.492,9.492,0,0,1-1.666.11l-4.583.093c-3.89.053-9.31.09-15.427.1h-.3v-.3c0-.979,0-2.011,0-3.059,0-6.832.034-13.016.089-17.493.039-2.158.072-3.944.1-5.3a11.746,11.746,0,0,1,.119-1.944,11.906,11.906,0,0,1,.119,1.944c.025,1.357.058,3.143.1,5.3.056,4.477.089,10.661.089,17.493,0,1.048,0,2.08,0,3.059l-.3-.3c6.117.01,11.536.046,15.427.1l4.583.093A9.357,9.357,0,0,1,184.8,88.086Z" transform="translate(-162.817 -60.29)" fill="#e0e0e0"/></g><g transform="translate(66.275 27.282)"><path d="M163.255,48.3a13.152,13.152,0,0,1,.305,3.961,13.156,13.156,0,0,1-.305,3.962c-.169,0-.305-1.774-.305-3.962S163.086,48.3,163.255,48.3Z" transform="translate(-162.95 -48.296)" fill="#e0e0e0"/></g><g transform="translate(82.539 33.637)"><path d="M183.4,54.136c.12.119-1.02,1.452-2.545,2.976s-2.858,2.666-2.977,2.546,1.02-1.452,2.546-2.977S183.286,54.016,183.4,54.136Z" transform="translate(-177.874 -54.127)" fill="#e0e0e0"/></g><g transform="translate(93.957 47.351)"><path d="M195.029,66.732c.077.154-1.419,1.054-3.25,2.17s-3.322,2.025-3.423,1.885a10.487,10.487,0,0,1,3.106-2.407A10.482,10.482,0,0,1,195.029,66.732Z" transform="translate(-188.351 -66.711)" fill="#e0e0e0"/></g><g transform="translate(97.194 67.434)"><path d="M202.126,85.446c0,.169-2.418.305-5.4.305s-5.4-.136-5.4-.305,2.418-.305,5.4-.305S202.126,85.278,202.126,85.446Z" transform="translate(-191.322 -85.141)" fill="#e0e0e0"/></g><g transform="translate(22.881 66.714)"><path d="M133.334,84.785c0,.169-2.284.305-5.1.305s-5.1-.136-5.1-.305,2.284-.305,5.1-.305S133.334,84.617,133.334,84.785Z" transform="translate(-123.13 -84.48)" fill="#e0e0e0"/></g><g transform="translate(30.286 82.176)"><path d="M138.023,98.677c.11.128-1.616,1.693-3.856,3.5s-4.138,3.157-4.238,3.022,1.625-1.7,3.856-3.5S137.912,98.549,138.023,98.677Z" transform="translate(-129.925 -98.668)" fill="#e0e0e0"/></g><g transform="translate(46.03 93.907)"><path d="M149.8,109.437c.141.1-1.14,2.072-2.624,4.549s-2.628,4.528-2.785,4.453a17.11,17.11,0,0,1,2.262-4.767A17.142,17.142,0,0,1,149.8,109.437Z" transform="translate(-144.372 -109.434)" fill="#e0e0e0"/></g><g transform="translate(66.275 98.233)"><path d="M163.255,124.208c-.169,0-.305-2.419-.305-5.4s.136-5.4.305-5.4.305,2.418.305,5.4S163.423,124.208,163.255,124.208Z" transform="translate(-162.95 -113.403)" fill="#e0e0e0"/></g><g transform="translate(81.775 94.786)"><path d="M185.265,117.293c-.086.136-2.2-1.079-4.455-3.051s-3.753-3.893-3.63-4,1.8,1.6,4.031,3.536S185.362,117.147,185.265,117.293Z" transform="translate(-177.173 -110.24)" fill="#e0e0e0"/></g><g transform="translate(94.065 83.34)"><path d="M195.181,106.466c-.12.119-1.722-1.289-3.578-3.146s-3.265-3.458-3.146-3.577,1.721,1.288,3.578,3.145S195.3,106.346,195.181,106.466Z" transform="translate(-188.451 -99.736)" fill="#e0e0e0"/></g><g transform="translate(31.998 46.602)"><path d="M137.386,71.915c-.12.12-1.533-1.1-3.157-2.724s-2.845-3.038-2.725-3.158a14.5,14.5,0,0,1,3.157,2.725A14.5,14.5,0,0,1,137.386,71.915Z" transform="translate(-131.496 -66.025)" fill="#e0e0e0"/></g><g transform="translate(45.591 32.528)"><path d="M149.753,58.867a13.893,13.893,0,0,1-3.1-2.659,13.892,13.892,0,0,1-2.673-3.091c.119-.12,1.508,1.07,3.1,2.658S149.872,58.747,149.753,58.867Z" transform="translate(-143.97 -53.109)" fill="#e0e0e0"/></g></g><g transform="translate(312.306 32.059)" opacity="0.8"><path d="M403.088,63.157a31.279,31.279,0,0,1,6.785,4.78l7.249-2.581,6.814,10.755-5.429,5.453a31.219,31.219,0,0,1,1.424,8.178l6.948,3.3-2.788,12.422-7.691.017a31.118,31.118,0,0,1-4.781,6.785l2.581,7.25-10.754,6.814-5.454-5.429a31.2,31.2,0,0,1-8.177,1.422l-3.3,6.949-12.424-2.786-.016-7.693a31.14,31.14,0,0,1-6.786-4.781l-7.25,2.582-6.814-10.755,5.431-5.454a31.292,31.292,0,0,1-1.424-8.176l-6.947-3.3,2.786-12.424,7.691-.015a31.127,31.127,0,0,1,4.781-6.786l-2.581-7.251,10.753-6.813,5.454,5.43a31.164,31.164,0,0,1,8.179-1.423l3.3-6.948,12.422,2.786.019,7.691ZM392.135,77.776a13.658,13.658,0,1,0,10.337,16.316A13.657,13.657,0,0,0,392.135,77.776Z" transform="translate(-350.285 -52.679)" fill="#ebebeb" fill-rule="evenodd"/></g><g transform="translate(0 133.265)"><path d="M63.7,164.112h80.612s-7.129-12.972-27.879-11.084c-19.817,1.8-20.824-6.383-30.9-7.39S67.06,152.355,63.7,164.112Z" transform="translate(-63.701 -145.55)" fill="#f5f5f5"/></g><g transform="translate(174.465 283.365)"><path d="M223.8,298.312h65.25s-5.77-10.5-22.565-8.972c-16.041,1.459-16.856-5.165-25.013-5.982S226.516,288.8,223.8,298.312Z" transform="translate(-223.797 -283.288)" fill="#f5f5f5"/></g></g><g transform="translate(19.855 482.373)"><path d="M521.457,444.843c0,.157-112.3.284-250.789.284-138.541,0-250.813-.128-250.813-.284s112.272-.283,250.813-.283C409.16,444.56,521.457,444.686,521.457,444.843Z" transform="translate(-19.855 -444.56)" fill="#263238"/></g><g transform="translate(46.173 155.779)"><g transform="translate(289.485)"><g transform="translate(0.284 0.283)"><rect width="158.322" height="106.006" fill="#fff"/></g><path d="M468.254,251.155s-.015-.663-.024-1.929l-.025-5.593c-.014-4.906-.033-12.1-.058-21.32-.028-18.417-.07-44.89-.12-77.165l.227.227-158.309.058h-.012l.283-.284c-.009,37.765-.016,73.677-.024,106.007l-.259-.26,114.061.129,32.587.07,8.668.032,2.237.015c.5.005.768.015.768.015s-.243.01-.738.015l-2.208.015-8.617.032-32.528.07-114.231.128h-.26v-.26c-.007-32.33-.015-68.241-.024-106.007v-.283h.3l158.309.057h.228v.227c-.049,32.334-.09,58.855-.119,77.307-.025,9.193-.045,16.374-.058,21.269-.011,2.428-.02,4.286-.025,5.55S468.254,251.155,468.254,251.155Z" transform="translate(-309.648 -144.865)" fill="#e8505b"/><g transform="translate(0.284 9.46)"><path d="M309.909,153.829c0-.157,35.415-.283,79.092-.283s79.1.126,79.1.283-35.407.283-79.1.283S309.909,153.986,309.909,153.829Z" transform="translate(-309.909 -153.546)" fill="#e8505b"/></g><g transform="translate(3.993 3.702)"><g opacity="0.3"><path d="M315.85,149.532a1.269,1.269,0,1,1-1.27-1.27A1.269,1.269,0,0,1,315.85,149.532Z" transform="translate(-313.312 -148.262)" fill="#e8505b"/></g><g transform="translate(4.348)" opacity="0.3"><path d="M319.839,149.532a1.268,1.268,0,1,1-1.268-1.27A1.268,1.268,0,0,1,319.839,149.532Z" transform="translate(-317.302 -148.262)" fill="#e8505b"/></g><g transform="translate(8.633)" opacity="0.3"><path d="M323.772,149.532a1.269,1.269,0,1,1-1.268-1.27A1.268,1.268,0,0,1,323.772,149.532Z" transform="translate(-321.234 -148.262)" fill="#e8505b"/></g></g><g transform="translate(13.895 20.798)" opacity="0.3"><rect width="42.232" height="42.232" fill="#e8505b"/></g><g transform="translate(63.322 32.452)"><path d="M441.327,174.927c0,.157-16.471.284-36.785.284s-36.788-.127-36.788-.284,16.467-.283,36.788-.283S441.327,174.771,441.327,174.927Z" transform="translate(-367.755 -174.644)" fill="#e8505b"/></g><g transform="translate(63.322 40.3)"><path d="M441.327,182.129c0,.157-16.471.283-36.785.283s-36.788-.126-36.788-.283,16.467-.283,36.788-.283S441.327,181.972,441.327,182.129Z" transform="translate(-367.755 -181.846)" fill="#e8505b"/></g><g transform="translate(63.322 48.147)"><path d="M441.327,189.331c0,.156-16.471.283-36.785.283s-36.788-.127-36.788-.283,16.467-.284,36.788-.284S441.327,189.175,441.327,189.331Z" transform="translate(-367.755 -189.047)" fill="#e8505b"/></g><g transform="translate(63.322 55.996)"><path d="M411.237,196.532a9.794,9.794,0,0,1-1.709.111l-4.659.089c-3.935.051-9.37.084-15.372.084s-11.441-.033-15.375-.084l-4.66-.089a9.787,9.787,0,0,1-1.708-.111,9.874,9.874,0,0,1,1.708-.11l4.66-.09c3.934-.051,9.37-.083,15.375-.083s11.437.032,15.372.083l4.659.09A9.882,9.882,0,0,1,411.237,196.532Z" transform="translate(-367.755 -196.249)" fill="#e8505b"/></g><g transform="translate(16.538 77.269)" opacity="0.3"><rect width="19.847" height="19.847" fill="#e8505b"/></g><g transform="translate(52.531 77.269)" opacity="0.3"><rect width="19.847" height="19.847" fill="#e8505b"/></g><g transform="translate(88.525 77.269)" opacity="0.3"><rect width="19.847" height="19.847" fill="#e8505b"/></g><g transform="translate(124.518 77.269)" opacity="0.3"><rect width="19.847" height="19.847" fill="#e8505b"/></g></g><g transform="translate(0 38.249)"><g transform="translate(0.224 0.224)"><rect width="141.038" height="57.287" fill="#fff"/></g><path d="M185.266,237.475s-.01-.352-.015-1.023-.01-1.672-.017-2.972c-.009-2.614-.022-6.455-.039-11.4-.02-9.887-.049-24.189-.085-41.891l.157.157-141.028.066h-.01l.223-.223c0,20.061-.007,39.426-.01,57.287l-.214-.214,101.121.1,29.335.059,7.851.027,2.032.013c.459,0,.7.013.7.013s-.222.009-.671.014l-2.007.013-7.807.027-29.286.059-101.266.1h-.214v-.215c0-17.861-.007-37.226-.01-57.287v-.223h.233l141.028.066h.158v.157c-.036,17.741-.064,32.077-.085,41.986-.016,4.932-.029,8.76-.038,11.366-.008,1.288-.013,2.272-.017,2.943S185.266,237.475,185.266,237.475Z" transform="translate(-44.005 -179.964)" fill="#e8505b"/><g transform="translate(0.365 7.726)"><path d="M44.34,187.277c0-.124,31.524-.223,70.4-.223s70.411.1,70.411.223-31.519.222-70.411.222S44.34,187.4,44.34,187.277Z" transform="translate(-44.34 -187.054)" fill="#e8505b"/></g><g transform="translate(4.222 3.47)"><g opacity="0.3"><path d="M49.927,184.172a1.024,1.024,0,1,1-1.023-1.024A1.024,1.024,0,0,1,49.927,184.172Z" transform="translate(-47.879 -183.148)" fill="#e8505b"/></g><g transform="translate(3.508)" opacity="0.3"><path d="M53.145,184.172a1.023,1.023,0,1,1-1.023-1.024A1.023,1.023,0,0,1,53.145,184.172Z" transform="translate(-51.098 -183.148)" fill="#e8505b"/></g><g transform="translate(6.965)" opacity="0.3"><path d="M56.318,184.172a1.024,1.024,0,1,1-1.024-1.024A1.024,1.024,0,0,1,56.318,184.172Z" transform="translate(-54.27 -183.148)" fill="#e8505b"/></g></g><g transform="translate(12.21 17.261)" opacity="0.3"><rect width="34.066" height="34.066" fill="#e8505b"/></g><g transform="translate(53.201 26.166)"><path d="M171.127,204.2c0,.123-17.531.223-39.15.223s-39.153-.1-39.153-.223,17.526-.223,39.153-.223S171.127,204.075,171.127,204.2Z" transform="translate(-92.824 -203.975)" fill="#e8505b"/><g transform="translate(0 6.941)"><path d="M171.127,210.567c0,.123-17.531.223-39.15.223s-39.153-.1-39.153-.223,17.526-.223,39.153-.223S171.127,210.443,171.127,210.567Z" transform="translate(-92.824 -210.344)" fill="#e8505b"/></g><g transform="translate(0 13.88)"><path d="M143.23,216.935a2.229,2.229,0,0,1-.512.045l-1.468.042-5.4.071-17.82.065-17.824-.065-5.4-.071-1.468-.042a2.229,2.229,0,0,1-.512-.045,2.227,2.227,0,0,1,.512-.045l1.468-.043,5.4-.071,17.824-.065,17.82.065,5.4.071,1.468.043A2.227,2.227,0,0,1,143.23,216.935Z" transform="translate(-92.824 -216.712)" fill="#e8505b"/></g></g></g></g><g transform="translate(209.414 83.501)"><path d="M272.551,114.176c-2.365-1.576-5.61-.622-7.974.955s-4.384,3.738-7.033,4.767c-4.974,1.933-11.494-.357-15.36,3.322-2.453,2.335-2.7,6.168-4.578,8.988-3.158,4.751-10.735,6.536-11.385,12.2-.379,3.306,2.236,6.476,5.432,7.4a11.658,11.658,0,0,0,9.483-1.894c3.237-2.151,5.779-5.468,9.468-6.693,3.769-1.251,8.422-.2,11.4-2.836s2.529-7.472,4.662-10.832c1.134-1.788,2.925-3.036,4.528-4.42s3.13-3.1,3.4-5.2-.593-5.685-2.037-5.766" transform="translate(-190.895 -75.414)" fill="#f5f5f5"/><g transform="translate(0 37.177)"><g transform="translate(20.212 233.093)"><path d="M212.387,326.561c.134-.081.575.36.986.984s.641,1.205.513,1.3-.57-.351-.987-.985S212.253,326.643,212.387,326.561Z" transform="translate(-212.349 -326.551)" fill="#263238"/></g><g transform="translate(15.545 223.272)"><path d="M208.1,317.54a13.243,13.243,0,0,1,2.069,5.044,13.263,13.263,0,0,1-2.069-5.044Z" transform="translate(-208.067 -317.538)" fill="#263238"/></g><g transform="translate(12.979 212.679)"><path d="M205.785,307.818a13.213,13.213,0,0,1,.995,5.362,13.262,13.262,0,0,1-.995-5.362Z" transform="translate(-205.711 -307.818)" fill="#263238"/></g><g transform="translate(12.345 201.794)"><path d="M205.455,297.83a13.257,13.257,0,0,1-.076,5.452,13.256,13.256,0,0,1,.076-5.452Z" transform="translate(-205.13 -297.83)" fill="#263238"/></g><g transform="translate(13.216 191.044)"><path d="M207.145,287.966a13.221,13.221,0,0,1-1.151,5.331,13.27,13.27,0,0,1,1.151-5.331Z" transform="translate(-205.93 -287.965)" fill="#263238"/></g><g transform="translate(16.089 180.886)"><path d="M210.827,278.647a13.241,13.241,0,0,1-2.231,4.975,13.241,13.241,0,0,1,2.231-4.975Z" transform="translate(-208.565 -278.644)" fill="#263238"/></g><g transform="translate(21.093 171.8)"><path d="M216.42,270.314a6.864,6.864,0,0,1-1.4,2.357,7.387,7.387,0,0,1-1.844,2.027c-.147-.1.487-1.146,1.387-2.364S216.3,270.214,216.42,270.314Z" transform="translate(-213.158 -270.306)" fill="#263238"/></g><g transform="translate(27.909 163.725)"><path d="M223.185,262.906c.111.11-.639,1.082-1.675,2.17s-1.97,1.884-2.086,1.779.633-1.077,1.674-2.17S223.072,262.8,223.185,262.906Z" transform="translate(-219.412 -262.896)" fill="#263238"/></g><g transform="translate(35.515 155.975)"><path d="M230.23,255.795c.113.109-.653,1.067-1.711,2.14s-2.006,1.854-2.116,1.744.655-1.07,1.711-2.141S230.117,255.686,230.23,255.795Z" transform="translate(-226.392 -255.785)" fill="#263238"/></g><g transform="translate(43.044 147.762)"><path d="M236.773,248.255c.125.094-.55,1.118-1.509,2.286s-1.832,2.033-1.95,1.929a6.856,6.856,0,0,1,1.51-2.287C235.775,249.024,236.648,248.161,236.773,248.255Z" transform="translate(-233.301 -248.248)" fill="#263238"/></g><g transform="translate(49.558 138.412)"><path d="M241.8,239.67a5.856,5.856,0,0,1-.915,2.595c-.7,1.35-1.452,2.331-1.583,2.249A8.02,8.02,0,0,1,240.379,242,8.172,8.172,0,0,1,241.8,239.67Z" transform="translate(-239.279 -239.668)" fill="#263238"/></g><g transform="translate(53.78 127.883)"><path d="M244.1,230.006a9.621,9.621,0,0,1-.895,5.375,21.42,21.42,0,0,1,.895-5.375Z" transform="translate(-243.153 -230.006)" fill="#263238"/></g><g transform="translate(53.863 117.051)"><path d="M243.288,220.067a9.644,9.644,0,0,1,.837,5.383,21.391,21.391,0,0,1-.837-5.383Z" transform="translate(-243.229 -220.066)" fill="#263238"/></g><g transform="translate(49.621 107.078)"><path d="M239.355,210.92c.126-.088.928.862,1.646,2.2a5.635,5.635,0,0,1,.928,2.589,23.148,23.148,0,0,1-2.574-4.793Z" transform="translate(-239.336 -210.915)" fill="#263238"/></g><g transform="translate(42.03 99.332)"><path d="M232.376,203.824a5.578,5.578,0,0,1,2.354,1.43c1.171.975,1.935,1.958,1.824,2.064s-1.043-.676-2.188-1.629S232.287,203.957,232.376,203.824Z" transform="translate(-232.371 -203.807)" fill="#263238"/></g><g transform="translate(32.13 94.871)"><path d="M223.286,199.769a9.278,9.278,0,0,1,5.155,1.761,23.374,23.374,0,0,1-5.155-1.761Z" transform="translate(-223.285 -199.713)" fill="#263238"/></g><g transform="translate(21.302 93.849)"><path d="M213.35,199.36a8.978,8.978,0,0,1,5.438-.289,8.847,8.847,0,0,1-2.711.289A8.974,8.974,0,0,1,213.35,199.36Z" transform="translate(-213.35 -198.775)" fill="#263238"/></g><g transform="translate(11.244 95.833)"><path d="M204.125,203.2c-.089-.124.846-.949,2.193-1.671a5.417,5.417,0,0,1,2.6-.9,28,28,0,0,1-4.8,2.574Z" transform="translate(-204.12 -200.596)" fill="#263238"/></g><g transform="translate(3.747 101.964)"><path d="M197.261,210.532a5.512,5.512,0,0,1,1.337-2.408c.935-1.206,1.9-2,2-1.892s-.644,1.063-1.555,2.239S197.4,210.615,197.261,210.532Z" transform="translate(-197.241 -206.222)" fill="#263238"/></g><g transform="translate(0 111.163)"><path d="M193.9,219.957a5.363,5.363,0,0,1,.211-2.749,5.425,5.425,0,0,1,1.066-2.542,9.172,9.172,0,0,1-.514,2.676A9.383,9.383,0,0,1,193.9,219.957Z" transform="translate(-193.802 -214.663)" fill="#263238"/></g><g transform="translate(0.011 121.897)"><path d="M195.191,229.8a8.715,8.715,0,0,1-1.285-5.289,9.28,9.28,0,0,1,.77,2.613A9.077,9.077,0,0,1,195.191,229.8Z" transform="translate(-193.812 -224.513)" fill="#263238"/></g><g transform="translate(3.719 132.092)"><path d="M200.411,238.3c-.117.1-1.019-.749-1.907-1.984a5.7,5.7,0,0,1-1.268-2.442c.137-.081.855.9,1.729,2.111A8.243,8.243,0,0,1,200.411,238.3Z" transform="translate(-197.215 -233.869)" fill="#263238"/></g><g transform="translate(10.691 140.431)"><path d="M207.862,244.96a6.032,6.032,0,0,1-2.348-1.432c-1.181-.951-2-1.882-1.892-2s1.083.616,2.249,1.554S207.954,244.831,207.862,244.96Z" transform="translate(-203.613 -241.521)" fill="#263238"/></g><g transform="translate(19.522 146.792)"><path d="M216.581,249.852a6.716,6.716,0,0,1-2.559-.982c-1.35-.688-2.381-1.353-2.3-1.489a13.219,13.219,0,0,1,4.86,2.47Z" transform="translate(-211.716 -247.358)" fill="#263238"/></g><g transform="translate(29.475 151.192)"><path d="M226.131,252.791a10.323,10.323,0,0,1-5.28-1.352,7.856,7.856,0,0,1,2.691.481A7.955,7.955,0,0,1,226.131,252.791Z" transform="translate(-220.85 -251.395)" fill="#263238"/></g><g transform="translate(40.165 153.006)"><path d="M236.1,253.2a9.791,9.791,0,0,1-5.445.108,20.523,20.523,0,0,1,5.445-.108Z" transform="translate(-230.659 -253.06)" fill="#263238"/></g><g transform="translate(50.972 150.313)"><path d="M245.7,250.618a9.538,9.538,0,0,1-5.126,1.842,21.734,21.734,0,0,1,5.126-1.842Z" transform="translate(-240.576 -250.589)" fill="#263238"/></g><g transform="translate(60.862 144.378)"><path d="M253.98,245.155c.1.113-.723,1.036-1.929,1.96a5.823,5.823,0,0,1-2.394,1.356c-.086-.134.865-.895,2.049-1.806S253.873,245.036,253.98,245.155Z" transform="translate(-249.651 -245.142)" fill="#263238"/></g><g transform="translate(68.998 136.14)"><path d="M260.4,237.588a5.905,5.905,0,0,1-1.338,2.4c-.911,1.216-1.82,2.059-1.935,1.956a8.035,8.035,0,0,1,1.481-2.3C259.51,238.457,260.27,237.5,260.4,237.588Z" transform="translate(-257.117 -237.583)" fill="#263238"/></g><g transform="translate(74.937 126.344)"><path d="M264.634,228.6a10.148,10.148,0,0,1-2.039,5.055,19.272,19.272,0,0,1,2.039-5.055Z" transform="translate(-262.567 -228.594)" fill="#263238"/></g><g transform="translate(78.304 115.669)"><path d="M266.467,218.8a10.428,10.428,0,0,1-.74,5.4,18.2,18.2,0,0,1,.74-5.4Z" transform="translate(-265.656 -218.798)" fill="#263238"/></g><g transform="translate(78.692 104.782)"><path d="M266.155,208.808a13.274,13.274,0,0,1,.421,5.437,13.222,13.222,0,0,1-.421-5.437Z" transform="translate(-266.013 -208.808)" fill="#263238"/></g><g transform="translate(76.417 94.145)"><path d="M263.975,199.048a13.269,13.269,0,0,1,1.425,5.266,13.268,13.268,0,0,1-1.425-5.266Z" transform="translate(-263.925 -199.047)" fill="#263238"/></g><g transform="translate(72.268 84.073)"><path d="M260.145,189.807a6.7,6.7,0,0,1,1.45,2.332,6.8,6.8,0,0,1,.845,2.614,6.8,6.8,0,0,1-1.359-2.375A6.906,6.906,0,0,1,260.145,189.807Z" transform="translate(-260.118 -189.804)" fill="#263238"/></g><g transform="translate(66.912 74.578)"><path d="M255.225,181.1c.134-.081.861.909,1.624,2.209a6.775,6.775,0,0,1,1.134,2.494c-.136.077-.864-.911-1.625-2.209A6.779,6.779,0,0,1,255.225,181.1Z" transform="translate(-255.203 -181.091)" fill="#263238"/></g><g transform="translate(61.499 65.112)"><path d="M250.26,172.408c.139-.072.841.935,1.568,2.248a6.783,6.783,0,0,1,1.071,2.523c-.135.078-.837-.927-1.568-2.249A6.744,6.744,0,0,1,250.26,172.408Z" transform="translate(-250.236 -172.405)" fill="#263238"/></g><g transform="translate(57.228 55.094)"><path d="M246.355,163.213a13.213,13.213,0,0,1,1.9,5.1,13.23,13.23,0,0,1-1.9-5.1Z" transform="translate(-246.317 -163.212)" fill="#263238"/></g><g transform="translate(55.245 44.377)"><path d="M244.664,153.378a7.966,7.966,0,0,1,.484,2.688,8,8,0,0,1,.094,2.73,10.177,10.177,0,0,1-.578-5.418Z" transform="translate(-244.497 -153.378)" fill="#263238"/></g><g transform="translate(55.399 33.534)"><path d="M245.551,143.428a7.912,7.912,0,0,1-.2,2.725,7.927,7.927,0,0,1-.592,2.669,10.268,10.268,0,0,1,.788-5.394Z" transform="translate(-244.638 -143.427)" fill="#263238"/></g><g transform="translate(57.724 23.248)"><path d="M248.912,133.992a7.98,7.98,0,0,1-.869,2.589,7.965,7.965,0,0,1-1.233,2.439,10.2,10.2,0,0,1,2.1-5.028Z" transform="translate(-246.772 -133.989)" fill="#263238"/></g><g transform="translate(62.584 14.221)"><path d="M254.587,125.714a8.043,8.043,0,0,1-1.515,2.272c-.918,1.181-1.69,2.124-1.823,2.036a5.91,5.91,0,0,1,1.374-2.382C253.552,126.437,254.473,125.609,254.587,125.714Z" transform="translate(-251.231 -125.705)" fill="#263238"/></g><g transform="translate(69.794 7.04)"><path d="M262.173,119.133c.087.132-.854.908-2.037,1.822a7.981,7.981,0,0,1-2.28,1.507c-.1-.116.73-1.031,1.933-1.957A5.943,5.943,0,0,1,262.173,119.133Z" transform="translate(-257.848 -119.115)" fill="#263238"/></g><g transform="translate(78.813 2.088)"><path d="M271.13,114.609a18.909,18.909,0,0,1-5,2.162,10.214,10.214,0,0,1,5-2.162Z" transform="translate(-266.124 -114.571)" fill="#263238"/></g><g transform="translate(89.04)"><path d="M278.191,112.782c.023.155-.555.39-1.288.526s-1.358.12-1.393-.033.543-.388,1.289-.526S278.169,112.627,278.191,112.782Z" transform="translate(-275.509 -112.655)" fill="#263238"/></g></g><g transform="translate(59.515)"><path d="M298.377,83.757s12.8-9.13,30.513-3.233c0,0,1.456,14.664-12.749,26.325" transform="translate(-243.931 -78.54)" fill="#e8505b"/><path d="M261.351,110.626c.545.817,14.435,23.149,14.435,23.149l41.709-25.7a14.6,14.6,0,0,0,4.073-21.117h0A14.6,14.6,0,0,0,301.7,83.531Z" transform="translate(-247.254 -78.315)" fill="#e8505b"/><path d="M274.674,130.414l-.935,15.712s27.029-13.09,20.284-27.632Z" transform="translate(-246.142 -74.954)" fill="#263238"/><path d="M281.832,96.507s-18.324-8.086-33.417,3.773l14.1,9.2Z" transform="translate(-248.415 -77.169)" fill="#263238"/><path d="M281.109,108.225l-26.083,16.317s.9,2.805,1.6,2.572c.587-.2,20.188-11.769,26.543-15.527a1.964,1.964,0,0,0,.513-2.94h0A1.971,1.971,0,0,0,281.109,108.225Z" transform="translate(-247.822 -75.903)" fill="#263238"/><g transform="translate(47.271 9.916)"><circle cx="8.351" cy="8.351" r="8.351" transform="matrix(0.229, -0.973, 0.973, 0.229, 0, 16.258)" fill="#fafafa"/><g transform="translate(1.407 1.455)"><path d="M310.07,97.56c-.065,0-.03-.744-.368-2.012a8.329,8.329,0,0,0-3.052-4.466,8.124,8.124,0,0,0-7.686-1.119,8,8,0,0,0-3.746,2.826,8.048,8.048,0,0,0,0,9.542,8.007,8.007,0,0,0,3.747,2.827,8.127,8.127,0,0,0,7.687-1.119,8.326,8.326,0,0,0,3.051-4.466c.338-1.268.3-2.016.368-2.013a1.891,1.891,0,0,1,.029.536,6.6,6.6,0,0,1-.184,1.53,8.307,8.307,0,0,1-3.022,4.732,8.447,8.447,0,0,1-3.59,1.637,8.585,8.585,0,0,1-4.519-.345,8.484,8.484,0,0,1-4.016-2.988,8.561,8.561,0,0,1,0-10.2,8.474,8.474,0,0,1,4.015-2.988,8.581,8.581,0,0,1,4.518-.345,8.428,8.428,0,0,1,3.59,1.637,8.31,8.31,0,0,1,3.023,4.732,6.6,6.6,0,0,1,.184,1.53A1.873,1.873,0,0,1,310.07,97.56Z" transform="translate(-293.084 -88.974)" fill="#263238"/></g></g><g transform="translate(60.645 2.003)"><path d="M319.252,103.9c-.108.011-.234-1.622-.874-4.16a31.646,31.646,0,0,0-1.452-4.35A31.388,31.388,0,0,0,310.866,86a31.886,31.886,0,0,0-3.367-3.115c-2.051-1.627-3.486-2.413-3.432-2.506a4.415,4.415,0,0,1,1.04.491,11.144,11.144,0,0,1,1.162.687c.438.29.956.6,1.474,1.011a27.989,27.989,0,0,1,3.5,3.071,29.438,29.438,0,0,1,6.165,9.547,28.053,28.053,0,0,1,1.359,4.457c.162.643.231,1.241.315,1.76a11.359,11.359,0,0,1,.148,1.34A4.448,4.448,0,0,1,319.252,103.9Z" transform="translate(-304.066 -80.378)" fill="#263238"/></g><g transform="translate(58.197 2.734)"><path d="M317.2,105.04c-.108.011-.239-1.649-.889-4.23a32.534,32.534,0,0,0-1.474-4.428,32.238,32.238,0,0,0-6.136-9.569,32.729,32.729,0,0,0-3.409-3.186c-2.076-1.668-3.529-2.479-3.474-2.573a4.543,4.543,0,0,1,1.053.51,11.5,11.5,0,0,1,1.176.707c.444.3.967.616,1.492,1.04a28.692,28.692,0,0,1,3.544,3.145,30.221,30.221,0,0,1,6.24,9.729,28.872,28.872,0,0,1,1.38,4.532c.166.654.236,1.262.323,1.79a11.854,11.854,0,0,1,.153,1.363A4.627,4.627,0,0,1,317.2,105.04Z" transform="translate(-301.819 -81.049)" fill="#263238"/></g></g></g><g transform="translate(38.644 308.06)"><g transform="translate(40.926 74.454)"><path d="M82.485,427.074C81.551,423.369,84,419.668,86.733,417s6-5.055,7.434-8.6c2.324-5.738-.715-13.2,3.223-17.975,2.317-2.808,6.448-3.729,8.508-6.734a15.426,15.426,0,0,0,1.869-5.377,54.729,54.729,0,0,1,13.755-25.391,47.482,47.482,0,0,1-5.479,24.515c-1.6,3.008-3.562,5.937-4.106,9.3-.884,5.462,2.135,11.11.762,16.469-1.57,6.13-8.489,10.2-8.852,16.516-.306,5.34,4.323,10.055,3.946,15.392a14.429,14.429,0,0,1-2.413,6.322c-4.169,6.843-10.264,11.538-19.461,11.332l-11.267.33Z" transform="translate(-74.652 -352.926)" fill="#e8505b"/></g><g transform="translate(40.926 74.454)" opacity="0.3"><path d="M82.485,427.074C81.551,423.369,84,419.668,86.733,417s6-5.055,7.434-8.6c2.324-5.738-.715-13.2,3.223-17.975,2.317-2.808,6.448-3.729,8.508-6.734a15.426,15.426,0,0,0,1.869-5.377,54.729,54.729,0,0,1,13.755-25.391,47.482,47.482,0,0,1-5.479,24.515c-1.6,3.008-3.562,5.937-4.106,9.3-.884,5.462,2.135,11.11.762,16.469-1.57,6.13-8.489,10.2-8.852,16.516-.306,5.34,4.323,10.055,3.946,15.392a14.429,14.429,0,0,1-2.413,6.322c-4.169,6.843-10.264,11.538-19.461,11.332l-11.267.33Z" transform="translate(-74.652 -352.926)"/></g><g transform="translate(0 35.268)"><path d="M75.74,456.612a8.99,8.99,0,0,1-3.1-.084,18.881,18.881,0,0,1-3.655-.943,15.5,15.5,0,0,1-4.507-2.5,6.3,6.3,0,0,1-1.845-2.488,11.637,11.637,0,0,1-.511-3.37,32.71,32.71,0,0,0-.242-3.645,10.049,10.049,0,0,0-1.357-3.63c-1.314-2.341-3.507-4.562-4.2-7.734-.753-3.121-.181-6.489.363-9.873s1.069-7.056-.2-10.584c-1.189-3.53-3.641-6.725-4.854-10.7-1.207-4.018-.609-8.329-.845-12.586a16.7,16.7,0,0,0-1.433-6.264c-.9-2-2.153-3.887-3.129-5.991-1.976-4.255-2.3-9.067-2.821-13.783q-.379-3.565-.767-7.2a35.182,35.182,0,0,0-1.211-7.211,63.747,63.747,0,0,0-2.655-6.987,23.159,23.159,0,0,1-1.287-3.648,36.616,36.616,0,0,1-.341-3.876,45.617,45.617,0,0,1,.343-7.8c.321-2.6.805-5.172,1.1-7.775.017-.154.036-.308.052-.449l.062-.519.46.233a17.4,17.4,0,0,1,6.035,5.152,27.622,27.622,0,0,1,3.687,6.887c1.855,4.85,2.5,9.927,3.424,14.772.9,4.845,2.092,9.614,4.551,13.65,1.224,2.014,2.707,3.853,4,5.818a15.912,15.912,0,0,1,2.758,6.436c.64,4.769-2.01,8.939-1.486,13.162a14.6,14.6,0,0,0,2.021,5.857c1.012,1.806,2.206,3.482,3.337,5.167a33.1,33.1,0,0,1,2.995,5.213,16.477,16.477,0,0,1,1.351,5.656c.254,3.8-.306,7.4-.048,10.8a24.874,24.874,0,0,0,2.728,9.274c1.347,2.779,2.849,5.294,4.1,7.732a39.363,39.363,0,0,1,1.688,3.6,17.633,17.633,0,0,1,.969,3.567,22.522,22.522,0,0,1,.047,6.431,16.2,16.2,0,0,1-3.27,8.181,7.731,7.731,0,0,1-.916.982,4.466,4.466,0,0,1-.743.623c-.422.307-.647.448-.647.448a14.175,14.175,0,0,0,2.194-2.145,16.309,16.309,0,0,0,3.1-8.126A22.38,22.38,0,0,0,80.93,440a17.435,17.435,0,0,0-.976-3.483c-.473-1.165-1.061-2.347-1.7-3.551-1.266-2.416-2.784-4.921-4.16-7.718a25.275,25.275,0,0,1-2.824-9.438c-.277-3.476.267-7.09,0-10.8a15.9,15.9,0,0,0-1.327-5.465,32.525,32.525,0,0,0-2.96-5.111c-1.131-1.673-2.338-3.354-3.379-5.2a15.239,15.239,0,0,1-2.115-6.1c-.517-4.5,2.113-8.7,1.46-13.129a15.283,15.283,0,0,0-2.666-6.156c-1.275-1.928-2.766-3.771-4.026-5.833-2.537-4.154-3.75-9.013-4.658-13.878-.93-4.876-1.58-9.9-3.4-14.648a26.917,26.917,0,0,0-3.591-6.706,16.666,16.666,0,0,0-5.78-4.94l.521-.284-.053.453c-.3,2.635-.784,5.214-1.1,7.782a44.935,44.935,0,0,0-.342,7.677,36.6,36.6,0,0,0,.325,3.76,22.58,22.58,0,0,0,1.244,3.519A64.3,64.3,0,0,1,42.1,347.82a35.823,35.823,0,0,1,1.226,7.331q.384,3.639.758,7.208c.511,4.737.837,9.471,2.74,13.578.939,2.046,2.191,3.938,3.118,6a17.344,17.344,0,0,1,1.473,6.495c.22,4.349-.369,8.595.785,12.453,1.146,3.839,3.585,7.051,4.807,10.693,1.308,3.681.736,7.481.179,10.846-.563,3.388-1.128,6.687-.42,9.686.634,3.03,2.764,5.23,4.105,7.638a10.414,10.414,0,0,1,1.376,3.775,32.741,32.741,0,0,1,.216,3.689,11.451,11.451,0,0,0,.462,3.277,6.038,6.038,0,0,0,1.734,2.381,15.471,15.471,0,0,0,4.4,2.513,19.386,19.386,0,0,0,3.6,1,14.467,14.467,0,0,0,2.29.235C75.47,456.6,75.74,456.612,75.74,456.612Z" transform="translate(-37.097 -316.967)" fill="#263238"/><g transform="translate(3.799 6.735)"><path d="M40.587,323.147a1.336,1.336,0,0,1,.107.341c.064.27.145.6.243,1.016.216.888.473,2.23.889,3.9.433,1.671,1.444,3.566,2.3,5.9.9,2.314,1.8,4.994,2.633,8.005s1.584,6.349,2.36,9.928c.8,3.571,1.6,7.4,3.544,11.022.913,1.835,1.942,3.693,2.756,5.723a26.627,26.627,0,0,1,1.586,6.473A130.727,130.727,0,0,0,59.359,389.1c2.207,9.244,4.308,18.048,6.221,26.066,1.962,7.99,3.728,15.19,5.218,21.26,1.449,6.014,2.626,10.9,3.457,14.348.382,1.653.684,2.96.9,3.91.088.413.159.75.217,1.021a1.289,1.289,0,0,1,.05.353,1.329,1.329,0,0,1-.121-.336c-.077-.267-.171-.6-.288-1-.252-.942-.6-2.237-1.036-3.877L70.3,436.55c-1.533-6.059-3.351-13.247-5.369-21.223l-6.281-26.072a129.053,129.053,0,0,1-2.346-13.7,25.948,25.948,0,0,0-1.526-6.317c-.785-1.979-1.8-3.827-2.71-5.682-1.962-3.688-2.765-7.635-3.533-11.192-.751-3.587-1.461-6.918-2.268-9.92s-1.662-5.681-2.517-8c-.815-2.323-1.794-4.24-2.2-5.966-.381-1.717-.588-3.045-.76-3.949l-.172-1.03A1.342,1.342,0,0,1,40.587,323.147Z" transform="translate(-40.583 -323.147)" fill="#263238"/></g></g><g transform="translate(28.992)"><path d="M71.364,459.541c-7.333-4.416-9.37-17.7-6.255-25.676s8.528-15.243,9.406-23.758c.673-6.546-1.433-13.28.129-19.671,2.108-8.628,10.579-15.271,10.532-24.151-.026-4.982-2.834-9.686-2.581-14.663.312-6.1,5.026-10.92,7.958-16.282,4.489-8.207,4.836-17.938,6.408-27.16s5.146-19.087,13.352-23.577c1.164,7.843,3.2,13.222,2.488,23.835-.255,3.811-4.725,11.085-5.375,19.437-.389,4.992-.667,9.992-1,14.988-.325,4.861-.668,9.812-2.437,14.352-1.356,3.48-3.52,6.636-4.532,10.229-1.9,6.762.506,14.111-1.041,20.964-1.31,5.806-5.362,10.786-6.217,16.676-1.2,8.276,4.109,16.912,1.321,24.8-1.384,3.912-4.626,7.042-5.564,11.084-.728,3.137.027,6.467-.633,9.618-1.065,5.077-10.783,8.97-15.958,8.626" transform="translate(-63.701 -284.604)" fill="#e8505b"/><g transform="translate(7.659 7.768)"><path d="M107.611,291.732a2.077,2.077,0,0,1-.035.442c-.045.329-.1.753-.173,1.287-.175,1.13-.375,2.791-.769,4.938-.423,2.159-1.55,4.586-2.456,7.514-.956,2.918-1.909,6.287-2.756,10.06s-1.588,7.945-2.351,12.438c-.788,4.459-1.594,9.387-3.851,14.057-1.046,2.346-2.218,4.694-3.1,7.2a32.446,32.446,0,0,0-1.6,7.942,160.373,160.373,0,0,1-2.255,17.128c-2.32,11.6-4.529,22.646-6.54,32.7L76.1,434.069c-1.619,7.54-2.935,13.658-3.854,17.943-.463,2.078-.826,3.71-1.084,4.871-.124.523-.223.939-.3,1.262a2.08,2.08,0,0,1-.126.426,1.9,1.9,0,0,1,.053-.44c.059-.327.134-.749.23-1.278.227-1.167.545-2.808.95-4.9.867-4.3,2.105-10.429,3.631-17.99,1.562-7.6,3.416-16.638,5.476-26.665,1.992-10.053,4.181-21.1,6.48-32.691a162.315,162.315,0,0,0,2.262-17.072,32.938,32.938,0,0,1,1.651-8.1c.91-2.557,2.1-4.914,3.143-7.24,2.244-4.6,3.05-9.412,3.87-13.888.788-4.484,1.545-8.67,2.442-12.448s1.874-7.155,2.87-10.074c.951-2.938,2.113-5.343,2.566-7.446.432-2.108.68-3.785.9-4.9.1-.529.182-.949.244-1.275A1.935,1.935,0,0,1,107.611,291.732Z" transform="translate(-70.729 -291.732)" fill="#263238"/></g></g></g><g transform="translate(436.81 291.708)"><g transform="translate(0 19.79)"><rect width="7.595" height="24.538" fill="#e8505b"/></g><g transform="translate(13.98 9.691)"><rect width="7.595" height="34.637" fill="#e8505b"/></g><g transform="translate(28.86 4.975)"><rect width="7.595" height="39.353" fill="#e8505b"/></g><g transform="translate(43.74)"><rect width="7.595" height="44.328" fill="#e8505b"/></g></g><g transform="translate(132.163 281.2)"><g transform="translate(27.238 49.33)"><g transform="translate(12.776 12.568)"><path d="M168.227,316.991a5.219,5.219,0,0,1,1.632.511,6.875,6.875,0,0,1,3.253,3.293,6.964,6.964,0,0,1,.665,3.181,7.084,7.084,0,0,1-1.094,3.566,7.069,7.069,0,0,1-3.124,2.684,7.047,7.047,0,0,1-8.188-1.836,7.075,7.075,0,0,1-1.679-3.762,7.078,7.078,0,0,1,.534-3.692,6.972,6.972,0,0,1,1.959-2.593,6.883,6.883,0,0,1,4.348-1.588,5.257,5.257,0,0,1,1.695.235c-.008.049-.6-.12-1.69-.081a6.882,6.882,0,0,0-4.172,1.648,6.742,6.742,0,0,0-2.311,6.023,6.754,6.754,0,0,0,1.608,3.554,6.69,6.69,0,0,0,7.741,1.736,6.749,6.749,0,0,0,2.972-2.526,6.749,6.749,0,0,0,.484-6.433,6.885,6.885,0,0,0-3.069-3.271C168.824,317.141,168.213,317.039,168.227,316.991Z" transform="translate(-159.632 -316.756)" fill="#263238"/></g><path d="M174.816,310.637a1.577,1.577,0,0,1-.015-.243c0-.181-.01-.423-.016-.736-.01-.676-.023-1.648-.04-2.911l.049.061-6.289-1.372.113-.055-1.654,3.519-.029.063-.071,0a15.749,15.749,0,0,0-4.1.728l-.075.024-.056-.056-2.766-2.737.175.019-5.428,3.458.063-.184c.405,1.133.853,2.382,1.312,3.663l.033.094-.068.072a15.72,15.72,0,0,0-2.385,3.4l-.047.092h-.1l-3.888.013.172-.137c-.44,1.972-.914,4.1-1.4,6.282l-.1-.207,3.513,1.665.1.048,0,.114a15.689,15.689,0,0,0,.715,4.083l.035.111-.083.083-2.743,2.758.026-.241,3.447,5.436-.232-.08,3.665-1.307.113-.039.088.081a15.574,15.574,0,0,0,3.384,2.384h0c.048.078-.106-.175.108.175v.975l0,.974q0,.974,0,1.94l-.155-.193,6.281,1.41-.22.107,1.67-3.512.051-.106.117,0a15.6,15.6,0,0,0,4.084-.708l.111-.035.083.082,2.755,2.747-.234-.026,5.44-3.439-.074.216q-.662-1.867-1.3-3.667l-.037-.1.074-.078a15.644,15.644,0,0,0,2.4-3.388l.048-.093h.1l3.888,0-.16.129c.5-2.208.973-4.293,1.422-6.278l.083.171-3.509-1.677-.077-.037,0-.086a15.693,15.693,0,0,0-.7-4.1l-.023-.075.056-.056,2.754-2.748-.016.146-3.421-5.453.1.036-3.672,1.282-.037.013-.028-.026a16.384,16.384,0,0,0-2.5-1.924l-.669-.4a1.806,1.806,0,0,1-.22-.135,1.664,1.664,0,0,1,.236.107c.154.078.386.2.687.376a15.28,15.28,0,0,1,2.551,1.886l-.065-.013,3.657-1.328.066-.024.038.06,3.469,5.423.05.078-.066.066-2.735,2.766.032-.131a15.9,15.9,0,0,1,.739,4.168l-.082-.123,3.518,1.66.109.052-.026.118c-.441,1.987-.906,4.073-1.4,6.284l-.028.129h-.132l-3.888.015.151-.092a15.986,15.986,0,0,1-2.439,3.472l.037-.18q.642,1.8,1.309,3.663l.049.137-.123.078-5.434,3.45-.126.081-.108-.107-2.759-2.742.193.047a15.993,15.993,0,0,1-4.185.73l.168-.111q-.824,1.741-1.666,3.514l-.066.142-.154-.035-6.281-1.407-.155-.034v-.159l0-1.939,0-.975v-.974c.214.35.059.1.107.174h0a15.993,15.993,0,0,1-3.47-2.445l.2.041-3.666,1.3-.148.053-.084-.133-3.443-5.439-.083-.132.109-.109,2.747-2.756-.047.193a16.048,16.048,0,0,1-.725-4.184l.107.162c-1.216-.58-2.417-1.152-3.511-1.672l-.133-.064.033-.143c.491-2.181.971-4.307,1.417-6.279l.031-.138h.141l3.889,0-.151.092a15.975,15.975,0,0,1,2.449-3.463l-.034.167c-.453-1.283-.9-2.533-1.3-3.668l-.041-.118.1-.066,5.444-3.433.1-.06.08.08c.966.966,1.893,1.9,2.749,2.753l-.131-.032a15.911,15.911,0,0,1,4.169-.712l-.1.066,1.681-3.506.035-.073.078.017,6.272,1.445.05.012v.05c-.012,1.251-.021,2.215-.027,2.885-.005.317-.01.562-.013.745A1.927,1.927,0,0,1,174.816,310.637Z" transform="translate(-147.908 -305.223)" fill="#263238"/></g><g transform="translate(12.775)"><path d="M164.149,265.813a17.469,17.469,0,0,1,3.792,2.671l4.052-1.443,3.808,6.011-3.034,3.048a17.438,17.438,0,0,1,.8,4.572l3.884,1.844-1.557,6.943-4.3.01a17.388,17.388,0,0,1-2.673,3.792l1.443,4.053-6.01,3.808-3.048-3.034a17.437,17.437,0,0,1-4.572.794l-1.844,3.884-6.944-1.557-.009-4.3a17.383,17.383,0,0,1-3.792-2.672l-4.053,1.443-3.809-6.011,3.036-3.048a17.476,17.476,0,0,1-.8-4.57l-3.883-1.844,1.557-6.944,4.3-.01a17.409,17.409,0,0,1,2.672-3.792l-1.443-4.052,6.011-3.809,3.048,3.035a17.43,17.43,0,0,1,4.57-.8l1.844-3.884,6.944,1.557.01,4.3Zm-6.122,8.17a7.634,7.634,0,1,0,5.778,9.12A7.634,7.634,0,0,0,158.026,273.983Z" transform="translate(-134.636 -259.956)" fill="#e8505b" fill-rule="evenodd"/><g opacity="0.8"><path d="M164.149,265.813a17.469,17.469,0,0,1,3.792,2.671l4.052-1.443,3.808,6.011-3.034,3.048a17.438,17.438,0,0,1,.8,4.572l3.884,1.844-1.557,6.943-4.3.01a17.388,17.388,0,0,1-2.673,3.792l1.443,4.053-6.01,3.808-3.048-3.034a17.437,17.437,0,0,1-4.572.794l-1.844,3.884-6.944-1.557-.009-4.3a17.383,17.383,0,0,1-3.792-2.672l-4.053,1.443-3.809-6.011,3.036-3.048a17.476,17.476,0,0,1-.8-4.57l-3.883-1.844,1.557-6.944,4.3-.01a17.409,17.409,0,0,1,2.672-3.792l-1.443-4.052,6.011-3.809,3.048,3.035a17.43,17.43,0,0,1,4.57-.8l1.844-3.884,6.944,1.557.01,4.3Zm-6.122,8.17a7.634,7.634,0,1,0,5.778,9.12A7.634,7.634,0,0,0,158.026,273.983Z" transform="translate(-134.636 -259.956)" fill="#fff" fill-rule="evenodd"/></g></g><g transform="translate(0 43.351)"><path d="M140.093,303.146A10.187,10.187,0,0,1,142.3,304.7l2.358-.839,2.217,3.5-1.766,1.774a10.156,10.156,0,0,1,.464,2.66l2.26,1.074-.907,4.042-2.5.005a10.124,10.124,0,0,1-1.555,2.208l.84,2.358-3.5,2.218-1.774-1.766a10.17,10.17,0,0,1-2.661.463l-1.073,2.26-4.043-.907,0-2.5a10.128,10.128,0,0,1-2.208-1.556l-2.359.84-2.217-3.5,1.766-1.774a10.161,10.161,0,0,1-.463-2.661l-2.26-1.073.906-4.042,2.5-.005a10.123,10.123,0,0,1,1.555-2.208l-.839-2.359,3.5-2.217,1.775,1.766a10.154,10.154,0,0,1,2.66-.463l1.074-2.26,4.041.907.007,2.5Zm-3.563,4.757a4.444,4.444,0,1,0,3.363,5.308A4.444,4.444,0,0,0,136.529,307.9Z" transform="translate(-122.913 -299.737)" fill="#e8505b" fill-rule="evenodd"/><g opacity="0.4"><path d="M140.093,303.146A10.187,10.187,0,0,1,142.3,304.7l2.358-.839,2.217,3.5-1.766,1.774a10.156,10.156,0,0,1,.464,2.66l2.26,1.074-.907,4.042-2.5.005a10.124,10.124,0,0,1-1.555,2.208l.84,2.358-3.5,2.218-1.774-1.766a10.17,10.17,0,0,1-2.661.463l-1.073,2.26-4.043-.907,0-2.5a10.128,10.128,0,0,1-2.208-1.556l-2.359.84-2.217-3.5,1.766-1.774a10.161,10.161,0,0,1-.463-2.661l-2.26-1.073.906-4.042,2.5-.005a10.123,10.123,0,0,1,1.555-2.208l-.839-2.359,3.5-2.217,1.775,1.766a10.154,10.154,0,0,1,2.66-.463l1.074-2.26,4.041.907.007,2.5Zm-3.563,4.757a4.444,4.444,0,1,0,3.363,5.308A4.444,4.444,0,0,0,136.529,307.9Z" transform="translate(-122.913 -299.737)" fill="#fff" fill-rule="evenodd"/></g></g></g><g transform="translate(184.79 217.429)"><g transform="translate(120.613)"><path d="M359.969,270.219a10.641,10.641,0,0,0,7.7-10.62c-.133-2.133-.926-4.208-.835-6.342.142-3.314,2.341-6.115,4-8.988s2.765-6.665.836-9.363c-1.251-1.75-3.46-2.539-4.975-4.066-1.483-1.5-2.187-3.567-2.982-5.516s-1.824-3.962-3.654-5-4.636-.579-5.379,1.392" transform="translate(-275.353 -199.791)" fill="#263238"/><path d="M346.706,218.109c3.264-2.073,4.053-6.88,2.283-10.318s-5.523-5.526-9.34-6.142a17.8,17.8,0,0,0-15.333,5.08c-2.107,2.17-3.813,5-6.669,5.994-2.512.874-5.29.085-7.926.427-3.534.458-6.564,2.971-8.376,6.039a25.81,25.81,0,0,0-2.978,10.186c-.385,3.249-.639,6.813-2.892,9.183-2.2,2.312-5.669,2.8-8.4,4.446a11.5,11.5,0,0,0-3.415,15.709c1.082,1.578,2.635,3.025,2.76,4.934.114,1.744-1.012,3.3-1.54,4.961-1.359,4.287,2.151,9.382,6.641,9.639,2.267.131,4.7-.753,6.728.26s2.769,3.44,4.06,5.29a9.705,9.705,0,0,0,11.835,3.057c1.667-.817,3.242-2.168,5.095-2.042s3.305,1.7,5.124,2.055c2.382.461,4.645-1.294,6.06-3.264s2.4-4.29,4.216-5.9c2.373-2.111,5.708-2.633,8.711-3.667a24.574,24.574,0,0,0,13.877-34.424" transform="translate(-281.886 -201.437)" fill="#263238"/><g transform="translate(28.32 13.839)"><path d="M351.544,221.256a5.219,5.219,0,0,1,4.658,5.3h0l-3.113,70.476c-.131,8.324-12.3,13-21.209,12.794h0c-9-.209-9.29-4.623-9.4-12.542-.187-13.23-.172-18.2-.177-18.12,0,0-11.368-1.914-13.692-16.756-1.155-7.381-.757-19.478-.112-29.366.58-8.9,6.5-19.808,15.369-18.851Z" transform="translate(-307.873 -214.136)" fill="#ffbe9d"/><g transform="translate(3.203 23.216)"><g transform="translate(0.684 3.583)"><path d="M311.441,240.443a1.9,1.9,0,0,0,1.831,1.924,1.82,1.82,0,0,0,1.965-1.712,1.9,1.9,0,0,0-1.829-1.924A1.82,1.82,0,0,0,311.441,240.443Z" transform="translate(-311.44 -238.728)" fill="#263238"/></g><path d="M310.842,237.432c.235.248,1.679-.815,3.727-.805,2.045-.019,3.546,1.037,3.768.788.11-.111-.13-.559-.784-1.037a5.224,5.224,0,0,0-3.015-.937,5.013,5.013,0,0,0-2.967.951C310.941,236.873,310.727,237.321,310.842,237.432Z" transform="translate(-310.813 -235.44)" fill="#263238"/></g><g transform="translate(23.329 23.643)"><g transform="translate(0.967 3.156)"><path d="M330.17,240.443A1.9,1.9,0,0,0,332,242.368a1.82,1.82,0,0,0,1.965-1.712,1.9,1.9,0,0,0-1.829-1.924A1.82,1.82,0,0,0,330.17,240.443Z" transform="translate(-330.169 -238.728)" fill="#263238"/></g><path d="M329.31,237.824c.236.248,1.682-.815,3.728-.805,2.045-.02,3.546,1.037,3.768.787.109-.11-.128-.559-.784-1.036a5.219,5.219,0,0,0-3.015-.937,5.013,5.013,0,0,0-2.967.95C329.412,237.264,329.2,237.712,329.31,237.824Z" transform="translate(-329.281 -235.832)" fill="#263238"/></g><g transform="translate(10.681 23.745)"><path d="M322.888,252.984a13.553,13.553,0,0,0-3.325-.607c-.523-.056-1.017-.16-1.1-.518a2.662,2.662,0,0,1,.353-1.549q.742-1.9,1.555-3.979c2.16-5.663,3.725-10.321,3.5-10.406s-2.166,4.438-4.325,10.1c-.52,1.4-1.018,2.728-1.491,4a3.035,3.035,0,0,0-.276,2.052,1.316,1.316,0,0,0,.859.766,3.581,3.581,0,0,0,.887.125A13.289,13.289,0,0,0,322.888,252.984Z" transform="translate(-317.674 -235.925)" fill="#263238"/></g><g transform="translate(14.427 59.774)"><path d="M321.112,274.244a37.739,37.739,0,0,0,19.881-5.257s-5.036,10.461-19.881,9.039Z" transform="translate(-321.112 -268.987)" fill="#eb996e"/></g><g transform="translate(16.544 44.355)"><path d="M323.26,256.223a3.691,3.691,0,0,1,3.311-1.363,3.372,3.372,0,0,1,2.323,1.253,2.134,2.134,0,0,1,.157,2.441,2.475,2.475,0,0,1-2.685.672,7.746,7.746,0,0,1-2.614-1.567,2.268,2.268,0,0,1-.583-.607.684.684,0,0,1,0-.762" transform="translate(-323.055 -254.838)" fill="#e8505b"/></g><g transform="translate(15.379 42.233)"><path d="M328.523,252.891c-.332-.02-.342,2.2-2.248,3.776S322,257.99,321.987,258.3c-.032.139.526.434,1.526.463a5.535,5.535,0,0,0,3.581-1.239,4.822,4.822,0,0,0,1.743-3.166C328.922,253.429,328.676,252.879,328.523,252.891Z" transform="translate(-321.986 -252.891)" fill="#263238"/></g><g transform="translate(22.436 20.522)"><path d="M328.472,234.494c.2.557,2.245.3,4.647.593,2.408.246,4.344.955,4.663.456.143-.239-.194-.763-.975-1.3a8.14,8.14,0,0,0-7.093-.8C328.83,233.793,328.385,234.229,328.472,234.494Z" transform="translate(-328.461 -232.967)" fill="#263238"/></g><g transform="translate(3.947 17.171)"><path d="M311.547,232.006c.359.465,1.771-.014,3.466-.033,1.7-.078,3.132.319,3.464-.167.145-.235-.081-.7-.707-1.143a5.02,5.02,0,0,0-5.584.16C311.587,231.3,311.389,231.778,311.547,232.006Z" transform="translate(-311.495 -229.893)" fill="#263238"/></g></g><path d="M339.261,216.461a14.4,14.4,0,0,1,11.761-2.2c3.958,1.137,7.238,4.7,7.372,8.735.086,2.621-1.045,5.407.118,7.771,1.107,2.249,3.835,3.165,5.769,4.794a8.855,8.855,0,0,1,2.05,10.706c-1.619,2.974-5.026,5.155-5.311,8.512-.269,3.159,2.394,5.825,3.042,8.932.716,3.426-1.181,6.971-3.9,9.244s-6.153,3.525-9.51,4.734c-2.619.943-5.424,1.9-8.143,1.283a8.336,8.336,0,0,1-6.1-6.959,11.343,11.343,0,0,1,3.089-8.957c1.906-2.1,4.578-3.882,5.036-6.652.714-4.314-4.428-7.86-4.111-12.219.163-2.248,1.749-4.109,3.069-5.958s2.47-4.174,1.661-6.285c-1.053-2.743-4.658-3.458-6.836-5.469a6.661,6.661,0,0,1-1.82-6.748,6.869,6.869,0,0,1,5.379-4.586" transform="translate(-277.01 -200.328)" fill="#263238"/><path d="M344.217,213.528a10.151,10.151,0,0,1-11.976,10.024c-2.267-.414-4.75-1.561-6.713-.352-2.064,1.27-2.149,4.381-3.98,5.97-2.615,2.27-6.774.139-10.094,1.125-2.564.761-4.166,3.212-5.869,5.273s-4.255,4.022-6.82,3.262a30.085,30.085,0,0,1,1.018-6.841,10.112,10.112,0,0,1,3.885-5.574,37.716,37.716,0,0,0,3.279-1.908c2.128-1.719,2.622-4.709,3.936-7.108a11.122,11.122,0,0,1,8.475-5.622c2.918-.3,5.926.578,8.771-.141,2.1-.53,3.939-1.9,6.071-2.3,4.149-.789,8.006,2.188,11.014,5.153" transform="translate(-280.371 -200.74)" fill="#263238"/><g transform="translate(65.684 16.058)"><path d="M367.424,248.371a3.219,3.219,0,0,0,.329-1.711,4.308,4.308,0,0,0-2.987-3.413,22.053,22.053,0,0,0-3.262-.878,9.546,9.546,0,0,1-3.694-1.522,5.2,5.2,0,0,1-1.922-3.969,41.884,41.884,0,0,1,.229-4.672,10.674,10.674,0,0,0-.117-2.283,4.874,4.874,0,0,0-.875-1.947,7.454,7.454,0,0,0-3.572-2.05,16.085,16.085,0,0,1-3.638-1.568,12.8,12.8,0,0,1-5.3-6.418,8.655,8.655,0,0,1-.38-1.3,1.47,1.47,0,0,1-.066-.467c.051-.014.2.619.652,1.685a13.206,13.206,0,0,0,2.706,4.031,13.39,13.39,0,0,0,6.2,3.541,7.879,7.879,0,0,1,3.838,2.2,5.4,5.4,0,0,1,1,2.188,11.1,11.1,0,0,1,.13,2.419,44.126,44.126,0,0,0-.241,4.607,4.684,4.684,0,0,0,1.689,3.594,9.233,9.233,0,0,0,3.482,1.477,21.284,21.284,0,0,1,3.306.966,5.212,5.212,0,0,1,2.3,1.726,3.948,3.948,0,0,1,.754,2.039,2.59,2.59,0,0,1-.268,1.345A1.043,1.043,0,0,1,367.424,248.371Z" transform="translate(-342.16 -216.173)" fill="#455a64"/></g><g transform="translate(2.497 3.088)"><path d="M285.233,258.7a.939.939,0,0,1-.243-.114,1.646,1.646,0,0,1-.557-.561,3,3,0,0,1,.3-2.93,3.9,3.9,0,0,1,1.589-1.52,20.452,20.452,0,0,1,2.385-1.007,7.359,7.359,0,0,0,2.5-1.415,5.337,5.337,0,0,0,1.425-2.814c.251-1.115.324-2.331.525-3.6a7.9,7.9,0,0,1,1.472-3.74c1.728-2.278,4.56-3.487,6.673-5.622a10.28,10.28,0,0,0,2.318-3.93,27.046,27.046,0,0,0,1.049-4.751c.459-3.259.921-6.912,3.116-9.895a7.228,7.228,0,0,1,4.477-2.892,15.706,15.706,0,0,1,5.167.13,18.761,18.761,0,0,0,4.828.282,6.284,6.284,0,0,0,3.945-2.037c2.025-2.184,3.189-5.125,5.678-6.63a9.481,9.481,0,0,1,7.5-1.033,8.31,8.31,0,0,1,4.934,3.835,9.342,9.342,0,0,1,1.282,4.576,8.035,8.035,0,0,1-.474,2.968,4.971,4.971,0,0,1-.438.951c-.028-.013.131-.338.329-.987a8.433,8.433,0,0,0,.362-2.926,9.224,9.224,0,0,0-1.333-4.419,7.994,7.994,0,0,0-4.77-3.611,9.091,9.091,0,0,0-7.136,1.043,10.435,10.435,0,0,0-2.863,2.955,33.042,33.042,0,0,1-2.687,3.638,7.389,7.389,0,0,1-1.9,1.484,7.024,7.024,0,0,1-2.359.73,19.152,19.152,0,0,1-4.973-.269,15.3,15.3,0,0,0-4.981-.126,6.662,6.662,0,0,0-4.133,2.681,13.727,13.727,0,0,0-2.121,4.651,45.741,45.741,0,0,0-.9,4.986,27.377,27.377,0,0,1-1.086,4.844,10.784,10.784,0,0,1-2.456,4.119c-2.237,2.217-5.041,3.4-6.671,5.541a7.438,7.438,0,0,0-1.414,3.526c-.21,1.236-.3,2.461-.567,3.615a5.7,5.7,0,0,1-1.568,2.987,7.631,7.631,0,0,1-2.632,1.449,20.772,20.772,0,0,0-2.371.948,3.7,3.7,0,0,0-1.527,1.4,2.9,2.9,0,0,0-.391,2.761A2.414,2.414,0,0,0,285.233,258.7Z" transform="translate(-284.177 -204.271)" fill="#455a64"/></g></g><g transform="translate(81.43 81.304)"><path d="M252.256,352.515l26.32-2.413s16.2-42.659,36.163-53l12.933,22.592-27.685,52.019H245.929Z" transform="translate(-245.929 -274.156)" fill="#e8505b"/><path d="M252.256,352.515l26.32-2.413s16.2-42.659,36.163-53l12.933,22.592-27.685,52.019H245.929Z" transform="translate(-245.929 -274.156)" opacity="0.3"/><g transform="translate(16.714 82.17)"><path d="M261.279,359.684a40.583,40.583,0,0,1,4.923-8.234,40.723,40.723,0,0,1-4.923,8.234Z" transform="translate(-261.267 -351.448)" fill="#fafafa"/></g><g transform="translate(29.376 82.435)"><path d="M278.883,359.146a40.355,40.355,0,0,1-5.989-7.451,40.453,40.453,0,0,1,5.989,7.451Z" transform="translate(-272.885 -351.691)" fill="#fafafa"/></g><g transform="translate(38.328 73.206)"><path d="M281.383,350.123a21.155,21.155,0,0,1,0-6.9,21.155,21.155,0,0,1,0,6.9Z" transform="translate(-281.1 -343.222)" fill="#fafafa"/></g><g transform="translate(24.621 92.258)"><path d="M273.249,363.811a7.248,7.248,0,0,1-2.516-1.307c-1.3-.852-2.292-1.65-2.206-1.781a7.246,7.246,0,0,1,2.516,1.307C272.347,362.882,273.335,363.68,273.249,363.811Z" transform="translate(-268.522 -360.705)" fill="#fafafa"/></g><g transform="translate(40.289 56.148)"><path d="M287.07,327.57a45.606,45.606,0,0,1-4.154,9.274,45.7,45.7,0,0,1,4.154-9.274Z" transform="translate(-282.9 -327.569)" fill="#fafafa"/></g><g transform="translate(50.575 38.848)"><path d="M296.891,311.708c.095.125-.847,1-2.1,1.948a7.4,7.4,0,0,1-2.444,1.5c-.095-.124.846-1,2.1-1.949A7.446,7.446,0,0,1,296.891,311.708Z" transform="translate(-292.339 -311.693)" fill="#fafafa"/></g><path d="M332.641,368.151l13.573-54.822a18.649,18.649,0,0,1,21.41-13.871h0a18.648,18.648,0,0,1,15.12,21.211l-8.31,53.581a26.807,26.807,0,0,1-22.242,21.689L341.4,397.622Z" transform="translate(-238.146 -273.971)" fill="#e8505b"/><g transform="translate(110.279 18.721)"><path d="M374.118,296.449a12.251,12.251,0,0,0-4.842-2.433,12.908,12.908,0,0,0-5.842.04,15.849,15.849,0,0,0-6.351,3.312c-3.979,3.335-6.143,7.668-7.614,10.7-.727,1.542-1.28,2.809-1.676,3.68a7.568,7.568,0,0,1-.663,1.333,7.37,7.37,0,0,1,.459-1.417c.332-.9.83-2.19,1.515-3.763a40.724,40.724,0,0,1,2.791-5.35,23.8,23.8,0,0,1,4.825-5.623,15.974,15.974,0,0,1,6.6-3.385,12.917,12.917,0,0,1,6.057.08,10.311,10.311,0,0,1,3.678,1.776,6.939,6.939,0,0,1,.824.745C374.048,296.332,374.132,296.434,374.118,296.449Z" transform="translate(-347.126 -293.225)" fill="#263238"/></g><g transform="translate(42.519 34.28)"><path d="M302.8,307.5a2.625,2.625,0,0,1-.379.509l-1.162,1.391c-1,1.209-2.438,2.976-4.072,5.259a56.053,56.053,0,0,0-9.267,19.673c-1.893,8.359-1.987,16.188-2.308,21.8-.135,2.812-.267,5.087-.388,6.657-.065.734-.118,1.332-.16,1.807a2.7,2.7,0,0,1-.095.628,2.614,2.614,0,0,1-.019-.634c.013-.476.032-1.077.053-1.812.051-1.65.122-3.907.207-6.662.22-5.607.245-13.464,2.157-21.906a54.17,54.17,0,0,1,9.5-19.782c1.685-2.265,3.171-4,4.229-5.168.524-.588.957-1.023,1.243-1.323A2.678,2.678,0,0,1,302.8,307.5Z" transform="translate(-284.946 -307.502)" fill="#263238"/></g><path d="M389.859,310.208c-1.489-9.8-6.9-12.156-12.51-15.209-1.834-1-10.672-3.266-17.679-4.975-.669-4.247-1.869-11.846-2.133-13.451-.369-2.254-35.7,3.382-36.143,4.227-.3.56-1.11,9.363-1.625,15.23l-8.458,2.956-11.039,14.035-5.745,8.159a43.969,43.969,0,0,0-7.116,15.663c-1.392,6.25-1.583,12.346-1.583,18.983l-1.707,35.99,73.914,20.9,5.722-36.458L382.825,350.3C384.453,339.806,391.69,322.261,389.859,310.208Z" transform="translate(-242.501 -276.045)" fill="#e8505b"/><g transform="translate(82.43 4.132)"><path d="M323.415,296.823a11.439,11.439,0,0,1-.491-2.5c-.231-1.552-.512-3.7-.788-6.074q-.191-1.764-.366-3.352a23.553,23.553,0,0,1-.2-2.771,3.326,3.326,0,0,1,.526-1.842c.285-.371.53-.471.545-.447.032.037-.158.2-.357.565a3.547,3.547,0,0,0-.313,1.727c.02.755.19,1.677.314,2.708.13,1.055.267,2.173.411,3.347.275,2.376.493,4.53.622,6.093A11.367,11.367,0,0,1,323.415,296.823Z" transform="translate(-321.57 -279.837)" fill="#263238"/></g><g transform="translate(91.759 2.64)"><path d="M332.071,294.718a8.543,8.543,0,0,1-.786-2.285,36.581,36.581,0,0,1-1.069-11.574,8.6,8.6,0,0,1,.354-2.391c.175.014-.145,3.679.282,8.169C331.255,291.128,332.241,294.673,332.071,294.718Z" transform="translate(-330.131 -278.468)" fill="#263238"/></g><g transform="translate(108.481 0.489)"><path d="M348.233,292.347c-.187-.02.6-3.682-.2-8.128-.745-4.457-2.716-7.642-2.546-7.723a7.345,7.345,0,0,1,1.295,2.051,20.642,20.642,0,0,1,1.982,11.433A7.34,7.34,0,0,1,348.233,292.347Z" transform="translate(-345.475 -276.494)" fill="#263238"/></g><g transform="translate(61.039 39.752)"><path d="M301.95,321.168a33.935,33.935,0,0,1,6.482-8.641,35.056,35.056,0,0,1-3.133,4.4A35,35,0,0,1,301.95,321.168Z" transform="translate(-301.941 -312.523)" fill="#fafafa"/></g><g transform="translate(72.26 27.751)"><path d="M317.674,308.615a35.277,35.277,0,0,1-5.427-7.1,35.36,35.36,0,0,1,5.427,7.1Z" transform="translate(-312.237 -301.511)" fill="#fafafa"/></g><g transform="translate(88.006 26.339)"><path d="M333.777,300.223a131.7,131.7,0,0,1-7.083,6.9,25.97,25.97,0,0,1,7.083-6.9Z" transform="translate(-326.687 -300.215)" fill="#fafafa"/></g><g transform="translate(85.149 11.389)"><path d="M329.126,291.083a20.632,20.632,0,0,1-5.053-4.577,20.634,20.634,0,0,1,5.053,4.577Z" transform="translate(-324.065 -286.496)" fill="#fafafa"/></g><g transform="translate(97.999 7.796)"><path d="M343.312,283.247a25.76,25.76,0,0,1-7.455,1.6,25.664,25.664,0,0,1,7.455-1.6Z" transform="translate(-335.857 -283.2)" fill="#fafafa"/></g><g transform="translate(107.969 24.351)"><path d="M345.541,306.018a25.835,25.835,0,0,1-.386-7.627,25.84,25.84,0,0,1,.386,7.627Z" transform="translate(-345.005 -298.391)" fill="#fafafa"/></g><g transform="translate(99.639 34.575)"><path d="M340.667,316.784a40.633,40.633,0,0,1-3.283-9.01,40.684,40.684,0,0,1,3.283,9.01Z" transform="translate(-337.362 -307.773)" fill="#fafafa"/></g><g transform="translate(84.162 42.335)"><path d="M326.843,324.327a45.271,45.271,0,0,1-3.665-9.432,45.107,45.107,0,0,1,3.665,9.432Z" transform="translate(-323.159 -314.894)" fill="#fafafa"/></g><g transform="translate(71.698 51.796)"><path d="M313.655,332.823a39.316,39.316,0,0,1-1.893-9.247,39.466,39.466,0,0,1,1.893,9.247Z" transform="translate(-311.722 -323.576)" fill="#fafafa"/></g><g transform="translate(52.673 53.086)"><path d="M298.336,333.087a37.939,37.939,0,0,1-4.056-8.326,37.94,37.94,0,0,1,4.056,8.326Z" transform="translate(-294.264 -324.759)" fill="#fafafa"/></g><g transform="translate(47.277 72.225)"><path d="M298.417,342.336a45.451,45.451,0,0,1-9.1,4.5,45.608,45.608,0,0,1,9.1-4.5Z" transform="translate(-289.312 -342.322)" fill="#fafafa"/></g><g transform="translate(54.362 81.197)"><path d="M298.044,358.728a19.48,19.48,0,0,1-2.18-8.173,86.354,86.354,0,0,1,2.18,8.173Z" transform="translate(-295.814 -350.555)" fill="#fafafa"/></g><g transform="translate(46.36 95.235)"><path d="M295.21,369.605a36.77,36.77,0,0,1-6.734-6.161,36.877,36.877,0,0,1,6.734,6.161Z" transform="translate(-288.471 -363.436)" fill="#fafafa"/></g><g transform="translate(64.723 93.169)"><path d="M315.947,361.565c.041.162-2.461.877-5.381,2.165s-5.15,2.63-5.242,2.488a22.992,22.992,0,0,1,10.623-4.653Z" transform="translate(-305.322 -361.541)" fill="#fafafa"/></g><g transform="translate(66.15 79.575)"><path d="M309.322,356.717a29.053,29.053,0,0,1-2.664-7.649,28.985,28.985,0,0,1,2.664,7.649Z" transform="translate(-306.631 -349.067)" fill="#fafafa"/></g><g transform="translate(75.586 72.491)"><path d="M321.746,342.568A64.573,64.573,0,0,1,315.3,352.8a64.585,64.585,0,0,1,6.447-10.228Z" transform="translate(-315.29 -342.566)" fill="#fafafa"/></g><g transform="translate(89.926 63.432)"><path d="M334.743,344.728a33.58,33.58,0,0,1-6.282-10.474c.148-.07,1.414,2.352,3.148,5.233S334.875,344.63,334.743,344.728Z" transform="translate(-328.449 -334.253)" fill="#fafafa"/></g><g transform="translate(96.367 59.856)"><path d="M342.709,331.028a16.74,16.74,0,0,1-8.35.414,27.547,27.547,0,0,1,4.174-.244A27.484,27.484,0,0,1,342.709,331.028Z" transform="translate(-334.359 -330.971)" fill="#fafafa"/></g><g transform="translate(113.957 43.955)"><path d="M361.429,316.393A64.753,64.753,0,0,1,350.5,321.6a64.642,64.642,0,0,1,10.927-5.207Z" transform="translate(-350.501 -316.38)" fill="#fafafa"/></g><g transform="translate(126.212 25.095)"><path d="M361.761,307.807a41.97,41.97,0,0,1,4.33-8.732,42.119,42.119,0,0,1-4.33,8.732Z" transform="translate(-361.746 -299.073)" fill="#fafafa"/></g><g transform="translate(135.906 31.808)"><path d="M373.782,315.211a35.817,35.817,0,0,1-1.655-4.957,35.771,35.771,0,0,1-1.466-5.018,29.411,29.411,0,0,1,3.121,9.976Z" transform="translate(-370.642 -305.234)" fill="#fafafa"/></g><g transform="translate(131.238 52.313)"><path d="M376.173,324.072a25.6,25.6,0,0,1-9.815,2.515,37.4,37.4,0,0,1,4.893-1.318A37.283,37.283,0,0,1,376.173,324.072Z" transform="translate(-366.358 -324.05)" fill="#fafafa"/></g><g transform="translate(119.058 53.228)"><path d="M355.216,336.879c-.165-.033.3-2.685.435-5.987.148-3.3-.092-5.983.075-6a24.467,24.467,0,0,1-.51,11.989Z" transform="translate(-355.181 -324.89)" fill="#fafafa"/></g><g transform="translate(107.619 69.934)"><path d="M351.777,348.758a26.878,26.878,0,0,1-7.083-8.536c.138-.09,1.58,1.93,3.534,4.275S351.892,348.639,351.777,348.758Z" transform="translate(-344.685 -340.219)" fill="#fafafa"/></g><g transform="translate(127.428 75.665)"><path d="M372.171,345.5a45.074,45.074,0,0,1-9.308,3.887,44.914,44.914,0,0,1,9.308-3.887Z" transform="translate(-362.862 -345.479)" fill="#fafafa"/></g><g transform="translate(128.615 88.643)"><path d="M364.182,369.375a63.3,63.3,0,0,1,.12-11.987,63.537,63.537,0,0,1-.12,11.987Z" transform="translate(-363.951 -357.388)" fill="#fafafa"/></g><g transform="translate(111.899 87.15)"><path d="M348.65,368.066a34.715,34.715,0,0,1,3.022-12.048c.154.054-.676,2.707-1.5,6.026S348.813,368.09,348.65,368.066Z" transform="translate(-348.612 -356.017)" fill="#fafafa"/></g><g transform="translate(100.682 105.662)"><path d="M350.353,373.088c.009.163-2.708.424-6.02.975s-5.97,1.169-6.014,1.011a32.032,32.032,0,0,1,12.034-1.987Z" transform="translate(-338.319 -373.005)" fill="#fafafa"/></g><g transform="translate(94.009 94.429)"><path d="M332.2,369.815a43.244,43.244,0,0,1,6.871-7.113,43.135,43.135,0,0,1-6.871,7.113Z" transform="translate(-332.195 -362.697)" fill="#fafafa"/></g><g transform="translate(78.892 104.818)"><path d="M321.335,380.744a39.756,39.756,0,0,1-1.472-4.264,39.712,39.712,0,0,1-1.523-4.247,17.419,17.419,0,0,1,3,8.511Z" transform="translate(-318.323 -372.231)" fill="#fafafa"/></g><g transform="translate(90.749 115.3)"><path d="M339.909,386.615a60.525,60.525,0,0,1-10.7-4.751,60.525,60.525,0,0,1,10.7,4.751Z" transform="translate(-329.204 -381.849)" fill="#fafafa"/></g><g transform="translate(67.348 110.294)"><path d="M307.758,385.051a29.9,29.9,0,0,1,2.589-7.795,29.856,29.856,0,0,1-2.589,7.795Z" transform="translate(-307.73 -377.255)" fill="#fafafa"/></g><g transform="translate(75.843 120.73)"><path d="M329.511,387.992c-.032.166-3.131-.337-6.984-.534-3.853-.212-6.988-.043-7-.21a33.97,33.97,0,0,1,13.985.744Z" transform="translate(-315.526 -386.832)" fill="#fafafa"/></g><g transform="translate(94.464 45.534)"><path d="M332.643,362.05a1.286,1.286,0,0,1-.029-.429,4.042,4.042,0,0,1,.175-1.237,2.736,2.736,0,0,1,1.185-1.622,3.807,3.807,0,0,1,2.66-.439l-.222.13c1.193-4.179,3.1-10.285,5.005-17.127,1.786-6.406,2.99-12.305,3.836-16.583l1-5.067a12.242,12.242,0,0,1,.43-1.847,12,12,0,0,1-.214,1.885c-.171,1.209-.449,2.952-.821,5.1a170.593,170.593,0,0,1-3.683,16.659c-1.911,6.86-3.885,12.942-5.189,17.087l-.051.161-.172-.032a3.535,3.535,0,0,0-2.423.324,2.55,2.55,0,0,0-1.143,1.433A15.091,15.091,0,0,0,332.643,362.05Z" transform="translate(-332.613 -317.829)" fill="#263238"/></g><g transform="translate(98.136 86.005)"><path d="M356.777,373.874c-.093.043-.763-1.433-2.149-3.632A37.463,37.463,0,0,0,339.8,356.768c-2.321-1.17-3.854-1.7-3.82-1.794a4.419,4.419,0,0,1,1.1.29,24.541,24.541,0,0,1,2.891,1.142,33.962,33.962,0,0,1,14.993,13.626,24.753,24.753,0,0,1,1.413,2.769A4.4,4.4,0,0,1,356.777,373.874Z" transform="translate(-335.982 -354.967)" fill="#263238"/></g><g transform="translate(98.444 85.211)" opacity="0.2"><path d="M336.57,354.238c4.167.3,7.58.614,11.493,2.08s7.528,4.273,8.966,8.195a2.7,2.7,0,0,1-.2,2.831,2.017,2.017,0,0,1-2.065.332,5.463,5.463,0,0,1-1.8-1.241c-2.4-2.222-4.892-4.185-7.372-6.319s-6.083-4.381-9.318-4.876" transform="translate(-336.265 -354.238)"/></g><g transform="translate(61.472 70.618)"><path d="M331.759,348.489a5.046,5.046,0,0,1-1.137.657,19.793,19.793,0,0,1-3.352,1.264,22.388,22.388,0,0,1-21.943-5.7,19.866,19.866,0,0,1-2.314-2.736,5.032,5.032,0,0,1-.673-1.127c.092-.069,1.083,1.531,3.265,3.573a23.09,23.09,0,0,0,21.563,5.6C330.068,349.3,331.713,348.386,331.759,348.489Z" transform="translate(-302.338 -340.847)" fill="#263238"/></g><g transform="translate(62.066 71.461)" opacity="0.2"><path d="M302.883,341.621c1.834,3.991,3.99,8.005,7.469,10.685a11.98,11.98,0,0,0,6.883,2.885c3.638.06,6.762-2.421,9.537-4.773-8.992,1.408-19.126-2.671-23.89-8.8" transform="translate(-302.883 -341.621)"/></g><g transform="translate(100.751 1.513)"><path d="M339.987,293.979c-.173-.01.036-3.742-.413-8.308-.426-4.569-1.339-8.194-1.172-8.236a8.958,8.958,0,0,1,.756,2.338,41.986,41.986,0,0,1,1.127,11.768A8.988,8.988,0,0,1,339.987,293.979Z" transform="translate(-338.382 -277.434)" fill="#263238"/></g></g><g transform="translate(0 245.197)"><path d="M225.727,426.44s-11.845,2.56-22.418.974c-9.913-1.486-32.111.051-32.1,13.117.01,14.572,29.609,10.972,41.158,8.661s23.048-4.4,23.048-4.4Z" transform="translate(-171.206 -426.44)" fill="#e8505b"/><g transform="translate(25.598 8.401)"><path d="M197.037,444.417a48.944,48.944,0,0,1-2.308-10.268,48.945,48.945,0,0,1,2.308,10.268Z" transform="translate(-194.696 -434.149)" fill="#263238"/></g><g transform="translate(30.488 8.383)"><path d="M200.674,444.61a49.478,49.478,0,0,1-1.437-10.477,49.5,49.5,0,0,1,1.437,10.477Z" transform="translate(-199.183 -434.133)" fill="#263238"/></g><g transform="translate(34.707 8.182)"><path d="M204.228,443.1a37.528,37.528,0,0,1-1.105-9.155,37.545,37.545,0,0,1,1.105,9.155Z" transform="translate(-203.055 -433.948)" fill="#263238"/></g><g transform="translate(39.972 7.742)"><path d="M209.921,441.611a15.658,15.658,0,0,1-1.958-8.067,1186.937,1186.937,0,0,1,1.958,8.067Z" transform="translate(-207.885 -433.544)" fill="#263238"/></g><g transform="translate(43.302 1.341)"><path d="M210.959,436.812a5.093,5.093,0,0,1,1.547-.1,13.131,13.131,0,0,1,4.158.814,4.628,4.628,0,0,1,1.28.69,1.944,1.944,0,0,1,.8,1.444,2.19,2.19,0,0,1-2.682,1.948,5.516,5.516,0,0,1-3.092-2.2,9.4,9.4,0,0,1-1.749-3.643,9.252,9.252,0,0,1,1.3-7.545,1.5,1.5,0,0,1,.879-.53,1.194,1.194,0,0,1,.985.307,2.649,2.649,0,0,1,.741,1.59,8.086,8.086,0,0,1-.156,2.964,8.232,8.232,0,0,1-2,3.737,6.45,6.45,0,0,1-.864.767c-.217.151-.335.222-.347.207-.033-.04.413-.372,1.045-1.12a8.511,8.511,0,0,0,1.772-3.679,7.827,7.827,0,0,0,.083-2.806,2.209,2.209,0,0,0-.6-1.284.76.76,0,0,0-1.143.191,9.242,9.242,0,0,0,.491,10.5,5.064,5.064,0,0,0,2.746,2.029,1.712,1.712,0,0,0,2.118-1.423,1.5,1.5,0,0,0-.609-1.117,4.293,4.293,0,0,0-1.148-.654,14.428,14.428,0,0,0-4.027-.967C211.512,436.839,210.961,436.858,210.959,436.812Z" transform="translate(-210.942 -427.671)" fill="#263238"/></g><g transform="translate(1.863 0.259)"><path d="M234.087,442.841a1.281,1.281,0,0,1-.3.095l-.888.221-3.434.782c-2.988.657-7.321,1.579-12.7,2.619s-11.816,2.213-19.026,3.2a51.381,51.381,0,0,1-11.432.57,24.562,24.562,0,0,1-5.987-1.144,16.44,16.44,0,0,1-2.874-1.277,8.874,8.874,0,0,1-2.524-2.032l.044.048a6.009,6.009,0,0,1-1.03-1.236,7.707,7.707,0,0,1-.6-6.377,10.194,10.194,0,0,1,3.8-4.964,19.3,19.3,0,0,1,5.4-2.674c.945-.268,1.865-.592,2.8-.8.94-.187,1.859-.437,2.786-.566,7.423-1.171,14.176-.576,19.784-.574,2.813.052,5.353-.024,7.579-.16a50.726,50.726,0,0,0,5.671-.717l2.042-.429,1.471-.42.909-.25a1.444,1.444,0,0,1,.316-.068,1.314,1.314,0,0,1-.3.122l-.894.3-1.462.474-2.041.482a47.388,47.388,0,0,1-5.691.817c-2.235.168-4.788.272-7.605.246-5.622.047-12.37-.5-19.7.689-.916.13-1.82.38-2.747.567-.922.212-1.824.535-2.753.8a18.79,18.79,0,0,0-5.241,2.609,9.652,9.652,0,0,0-3.591,4.689,7.161,7.161,0,0,0,.545,5.9,5.471,5.471,0,0,0,.928,1.115l.019.019.025.032a8.5,8.5,0,0,0,2.341,1.867,15.958,15.958,0,0,0,2.77,1.234,24.142,24.142,0,0,0,5.854,1.127,51.318,51.318,0,0,0,11.318-.533c7.2-.95,13.63-2.09,19.021-3.07s9.733-1.852,12.733-2.443l3.455-.679.9-.167A1.376,1.376,0,0,1,234.087,442.841Z" transform="translate(-172.915 -426.677)" fill="#263238"/></g><g transform="translate(16.963 2.933)"><path d="M189.533,449.638a19.591,19.591,0,0,1-.287-3.026c-.134-1.869-.356-4.444-.734-7.273s-.843-5.374-1.205-7.211a19.439,19.439,0,0,1-.52-3,13.8,13.8,0,0,1,.911,2.907,66.742,66.742,0,0,1,1.95,14.554A13.774,13.774,0,0,1,189.533,449.638Z" transform="translate(-186.772 -429.132)" fill="#263238"/></g><path d="M217.892,427.071l7.505,18.8,5.824-1.079-11.155-18.35Z" transform="translate(-167.016 -426.44)" opacity="0.4"/></g><path d="M319.871,382.311c-1.207.4-78.769-21.333-110.136-30.152a29.794,29.794,0,0,0-24.257,3.671l-.378.244a29.8,29.8,0,0,0-12.831,31.768h0a29.784,29.784,0,0,0,13.451,18.651c20.685,12.672,64.459,39.331,65.8,38.813,1.753-.68,56.422-2.1,56.422-2.1l-65.768-47.3,31.288,20.221,46.41-33.819Z" transform="translate(-171.18 -188.009)" fill="#263238"/><path d="M248.478,358.779l16.488-8.529,16.168,10.136,60.535,1.978,8.762,29.47-87.615-20.311s-15.947,1.411-17.142-2.173S248.478,358.779,248.478,358.779Z" transform="translate(-164.542 -188.081)" fill="#ffbe9d"/><path d="M294.409,403.231l-8.149,26.761,1.013,8.156h0a41.872,41.872,0,0,0,55.229,3.723h0a41.034,41.034,0,0,0,16.044-32.729l-.122-27.962Z" transform="translate(-160.88 -185.305)" fill="#263238"/><g transform="translate(43.08 186.836)"><path d="M252.656,404.15c-.094.126-9.554-6.771-21.127-15.4s-20.884-15.735-20.79-15.86,9.553,6.77,21.129,15.4S252.75,404.025,252.656,404.15Z" transform="translate(-210.738 -372.885)" fill="#455a64"/></g><g transform="translate(83.009 167.498)"><path d="M263.682,355.154a64.85,64.85,0,0,1-8.065,2.882,64.837,64.837,0,0,1-8.237,2.341,64.659,64.659,0,0,1,8.065-2.881A64.679,64.679,0,0,1,263.682,355.154Z" transform="translate(-247.379 -355.14)" fill="#eb996e"/></g><g transform="translate(81.606 172.498)"><path d="M265.03,359.767a17.243,17.243,0,0,1-2.808.527c-1.736.283-4.127.709-6.739,1.309s-4.95,1.262-6.636,1.766a17.081,17.081,0,0,1-2.756.751,12.32,12.32,0,0,1,2.631-1.132,59.249,59.249,0,0,1,13.446-3.092A12.324,12.324,0,0,1,265.03,359.767Z" transform="translate(-246.091 -359.728)" fill="#eb996e"/></g><g transform="translate(80.886 177.126)"><path d="M263.708,364a76.689,76.689,0,0,1-9.083,2.09,76.293,76.293,0,0,1-9.2,1.533,77.191,77.191,0,0,1,9.084-2.09A76.758,76.758,0,0,1,263.708,364Z" transform="translate(-245.43 -363.975)" fill="#eb996e"/></g><g transform="translate(0.931 130.135)"><path d="M248.9,321.883l15.209,50.043a1.451,1.451,0,0,0,1.278,1.024l41.444,3.11a1.449,1.449,0,0,1,1.34,1.445v2.587a1.449,1.449,0,0,1-1.477,1.449l-113.292-2.128a1.452,1.452,0,0,1-1.327-.933l-19.923-52.2a1.449,1.449,0,0,1,1.286-1.965l74.006-3.462A1.449,1.449,0,0,1,248.9,321.883Z" transform="translate(-172.06 -320.854)" fill="#455a64"/><path d="M213.467,341.6a3.574,3.574,0,0,0-2.242,2.546,3.43,3.43,0,0,0,1.465,3.118,3.726,3.726,0,0,0,4.141.155,3.452,3.452,0,0,0,1.13-4.182c-.5-1.382-3.03-2.348-4.494-1.636" transform="translate(-168.547 -319.014)" fill="#e0e0e0"/></g><g transform="translate(52.231 166.806)"><path d="M231.11,451.247l-11.974-19.7,88.054-69.011a35.38,35.38,0,0,1,19.232-7.882h0a35.383,35.383,0,0,1,38.469,38.183l-1.407,16.837-58.448,18.782Z" transform="translate(-219.136 -354.505)" fill="#263238"/><g transform="translate(11.974 49.969)"><path d="M343.044,400.359a1.326,1.326,0,0,1-.233.217l-.719.593-2.8,2.238-2.037,1.607c-.743.59-1.618,1.135-2.523,1.774l-2.925,2.005c-.52.352-1.046.727-1.6,1.086l-1.748,1.053c-2.393,1.428-4.975,3.064-7.9,4.543-1.452.76-2.932,1.588-4.5,2.362l-4.866,2.306c-6.7,3.056-14.211,6.13-22.26,8.866-16.084,5.542-30.953,9.532-41.6,12.761-2.671.786-5.077,1.52-7.185,2.187s-3.932,1.215-5.4,1.716l-3.409,1.107-.891.275a.16.16,0,1,1-.02-.054l.873-.328,3.376-1.21c1.464-.533,3.274-1.127,5.378-1.808,2.1-.7,4.5-1.459,7.164-2.269,10.627-3.329,25.478-7.38,41.534-12.914,8.036-2.732,15.53-5.783,22.229-8.805l4.862-2.279c1.565-.764,3.045-1.581,4.5-2.329,2.929-1.457,5.515-3.068,7.915-4.47L330,409.558c.558-.352,1.087-.721,1.61-1.066l2.941-1.964c.911-.624,1.794-1.157,2.545-1.733l2.062-1.564c1.218-.915,2.177-1.636,2.866-2.151l.754-.549A1.343,1.343,0,0,1,343.044,400.359Z" transform="translate(-230.124 -400.358)" fill="#455a64"/></g><g transform="translate(102.359 59.172)"><path d="M337.736,408.812a3.405,3.405,0,0,1-.888.465c-.585.268-1.447.619-2.526,1.02a64.377,64.377,0,0,1-17.535,3.768c-1.148.077-2.078.111-2.722.107a3.431,3.431,0,0,1-1-.059,33.449,33.449,0,0,1,3.686-.448c2.274-.254,5.406-.7,8.818-1.425s6.445-1.619,8.623-2.322A33.625,33.625,0,0,1,337.736,408.812Z" transform="translate(-313.064 -408.803)" fill="#455a64"/></g><g transform="translate(0 11.341)"><path d="M303.666,364.913c.1.123-18.75,14.933-42.088,33.072s-42.344,32.751-42.441,32.628,18.746-14.93,42.093-33.076S303.57,364.789,303.666,364.913Z" transform="translate(-219.136 -364.912)" fill="#455a64"/></g><g transform="translate(22.271 74.828)"><g transform="translate(0.01)"><path d="M296.742,432.916c-4.224-2.253-8.965-.921-13.006.441-2.691.907-5.486,2.343-8.218,1.574-1.976-.557-3.445-2.158-4.954-3.549a31.138,31.138,0,0,0-22.761-8.155,9.27,9.27,0,0,0-6.251,2.826c-4.149,4.493-1.02,10.341,2.687,14.119a40.962,40.962,0,0,0,24.752,11.94c7.725.806,18.348-.26,26.184-3.615,4.83-2.068,7.309-7.767,4.774-12.369A7.936,7.936,0,0,0,296.742,432.916Z" transform="translate(-239.581 -423.17)" fill="#e8505b"/><g transform="translate(0.22 3.595)" opacity="0.4"><path d="M296.715,436.216c-4.224-2.253-8.965-.921-13.007.441-2.69.907-5.485,2.343-8.217,1.574-1.976-.557-3.446-2.158-4.954-3.549a31.141,31.141,0,0,0-22.762-8.156,9.273,9.273,0,0,0-6.251,2.827,7.209,7.209,0,0,0-1.741,3.149,16.429,16.429,0,0,0,4.429,7.373,40.965,40.965,0,0,0,24.753,11.94c7.725.806,18.348-.26,26.182-3.615a9.555,9.555,0,0,0,5.573-6.642,8.069,8.069,0,0,0-.8-2.13A7.934,7.934,0,0,0,296.715,436.216Z" transform="translate(-239.783 -426.469)"/></g></g><g transform="translate(0 3.383)"><path d="M300.739,441.576a7.336,7.336,0,0,0-1.035-2.5,8.192,8.192,0,0,0-2.26-2.21,9.029,9.029,0,0,0-3.883-1.486c-3.136-.368-6.77.951-10.806,2.044-2,.527-4.175,1.336-6.56,1.036a8.7,8.7,0,0,1-3.375-1.168,20.978,20.978,0,0,1-2.9-2.184,31.579,31.579,0,0,0-17.3-8.2,18.084,18.084,0,0,0-5.112-.029,11.139,11.139,0,0,0-3.955,1.38,10.086,10.086,0,0,0-2.423,2.053,24.516,24.516,0,0,0-1.559,2.251,8.764,8.764,0,0,1,1.389-2.392,9.9,9.9,0,0,1,2.427-2.183,11.3,11.3,0,0,1,4.055-1.506,18.209,18.209,0,0,1,5.234-.04,30.1,30.1,0,0,1,5.855,1.3,33.886,33.886,0,0,1,6.063,2.676,25.262,25.262,0,0,1,2.951,1.921c.939.737,1.83,1.545,2.742,2.332a20.8,20.8,0,0,0,2.818,2.129,8.159,8.159,0,0,0,3.157,1.1c2.21.292,4.33-.463,6.353-.99,4.018-1.053,7.714-2.368,10.993-1.938a9.086,9.086,0,0,1,6.278,3.974,5.864,5.864,0,0,1,.781,1.907A2.683,2.683,0,0,1,300.739,441.576Z" transform="translate(-239.572 -426.274)" fill="#263238"/></g><g transform="translate(0 3.383)"><path d="M300.739,441.576a7.336,7.336,0,0,0-1.035-2.5,8.192,8.192,0,0,0-2.26-2.21,9.029,9.029,0,0,0-3.883-1.486c-3.136-.368-6.77.951-10.806,2.044-2,.527-4.175,1.336-6.56,1.036a8.7,8.7,0,0,1-3.375-1.168,20.978,20.978,0,0,1-2.9-2.184,31.579,31.579,0,0,0-17.3-8.2,18.084,18.084,0,0,0-5.112-.029,11.139,11.139,0,0,0-3.955,1.38,10.086,10.086,0,0,0-2.423,2.053,24.516,24.516,0,0,0-1.559,2.251,8.764,8.764,0,0,1,1.389-2.392,9.9,9.9,0,0,1,2.427-2.183,11.3,11.3,0,0,1,4.055-1.506,18.209,18.209,0,0,1,5.234-.04,30.1,30.1,0,0,1,5.855,1.3,33.886,33.886,0,0,1,6.063,2.676,25.262,25.262,0,0,1,2.951,1.921c.939.737,1.83,1.545,2.742,2.332a20.8,20.8,0,0,0,2.818,2.129,8.159,8.159,0,0,0,3.157,1.1c2.21.292,4.33-.463,6.353-.99,4.018-1.053,7.714-2.368,10.993-1.938a9.086,9.086,0,0,1,6.278,3.974,5.864,5.864,0,0,1,.781,1.907A2.683,2.683,0,0,1,300.739,441.576Z" transform="translate(-239.572 -426.274)" fill="#263238"/></g><g transform="translate(8.781 10.058)"><path d="M247.631,440.01a10.841,10.841,0,0,1,2.163-1.5,62.4,62.4,0,0,1,11.467-5.391,10.83,10.83,0,0,1,2.533-.709,13.706,13.706,0,0,1-2.39,1.085c-1.492.621-3.544,1.5-5.773,2.541s-4.209,2.072-5.639,2.824A13.634,13.634,0,0,1,247.631,440.01Z" transform="translate(-247.63 -432.4)" fill="#263238"/></g><g transform="translate(10.233 13.789)"><path d="M248.963,443.927a76.237,76.237,0,0,1,8.248-4.3,76.257,76.257,0,0,1,8.5-3.792,76.769,76.769,0,0,1-8.25,4.3A76.731,76.731,0,0,1,248.963,443.927Z" transform="translate(-248.962 -435.823)" fill="#263238"/></g><g transform="translate(7.929 11.245)"><path d="M266.651,445.969c-.084.132-4.585-2.553-10.052-6s-9.834-6.346-9.75-6.477,4.583,2.552,10.053,6S266.734,445.836,266.651,445.969Z" transform="translate(-246.848 -433.489)" fill="#263238"/></g><g transform="translate(15.433 9.055)"><path d="M268.566,441.766a13.455,13.455,0,0,1-2.2-1.472c-1.324-.955-3.15-2.274-5.195-3.692s-3.922-2.664-5.28-3.57a13.384,13.384,0,0,1-2.152-1.546,11.362,11.362,0,0,1,2.364,1.206c1.418.821,3.337,2.02,5.392,3.444s3.85,2.8,5.115,3.84A11.367,11.367,0,0,1,268.566,441.766Z" transform="translate(-253.734 -431.479)" fill="#263238"/></g></g></g></g></g></svg>